<?xml version="1.0" encoding="UTF-8"?>
<svg id="Layer_1" data-name="Layer 1" xmlns="http://www.w3.org/2000/svg" viewBox="0 0 200 200">
  <defs>
    <style>
      .cls-1 {
        fill: #9c5fca;
      }

      .cls-2 {
        fill: #63a3c6;
      }

      .cls-3 {
        fill: #5dafa7;
      }
    </style>
  </defs>
  <g>
    <path class="cls-1" d="M100.03,103.6c-.3-.76-.46-1.58-.46-2.43,0-3.63,2.94-6.58,6.58-6.58.39,0,.78.04,1.15.11,3.08.54,5.42,3.23,5.42,6.47,0,3.63-2.94,6.57-6.57,6.57-2.77,0-5.14-1.71-6.11-4.13Z"/>
    <path class="cls-1" d="M120.09,93.82c-.1-2.78-.78-5.42-1.9-7.8,0,0-.01-.02-.02-.04-.16-.33-.32-.65-.49-.97-.08-.16-.17-.32-.27-.48-.08-.14-.17-.29-.25-.42-.09-.15-.19-.31-.29-.46-.24-.38-.49-.74-.76-1.1-.09-.12-.18-.24-.27-.36-.07-.09-.14-.17-.2-.26-.12-.14-.24-.29-.36-.42-.09-.11-.19-.23-.29-.34-.1-.11-.2-.22-.3-.33-.1-.11-.2-.21-.3-.32-.19-.2-.38-.39-.58-.58-.02-.01-.04-.03-.06-.05-.32-.31-.65-.61-1-.89-.11-.1-.23-.18-.34-.28-.11-.09-.23-.18-.35-.27-.23-.17-.47-.35-.71-.52-.13-.09-.26-.17-.38-.25-.12-.08-.24-.16-.36-.24-.2-.12-.4-.25-.61-.36-.6-.35-1.21-.67-1.85-.96-.25-.11-.51-.22-.76-.32-.05-.02-.1-.04-.14-.05-.15-.06-.3-.12-.46-.18-.31-.12-.62-.23-.94-.32-.16-.05-.32-.1-.48-.14-.16-.05-.32-.09-.48-.13-.03-.01-.06-.02-.09-.02-.3-.08-.59-.14-.89-.21-.08-.01-.16-.04-.23-.04-.08-.02-.16-.03-.24-.05,0,0-.01,0-.02,0-.24-.04-.49-.08-.73-.11-.25-.04-.51-.07-.76-.09-.03,0-.04,0-.07-.01-.03,0-.05,0-.08,0-.1,0-.21-.02-.31-.02-.02,0-.04,0-.06,0-.22-.02-.44-.03-.67-.04-.29-.02-.58-.02-.87-.02-.1,0-.2,0-.29,0-1.53.05-2.41,1.77-1.56,3.06,1.24,1.93,1.93,4.26,1.84,6.75-.23,5.86-4.95,10.69-10.8,11.07-.66.04-1.29.03-1.93-.04-.12-.01-.25-.03-.38-.04-1.49-.2-2.89-.67-4.15-1.38-.24-.14-.48-.22-.73-.25-1.12-.14-2.21.68-2.23,1.88,0,.05,0,.1,0,.14,0,.05,0,.11.01.17,0,.1.02.18.03.28,0,.01,0,.02,0,.03.01.15.02.31.04.46.03.35.07.68.12,1.02.02.15.04.3.07.45.04.23.08.46.12.69.1.5.22.98.36,1.46.09.32.19.63.3.95l.16.46c.31.85.68,1.67,1.1,2.46.14.26.29.52.43.78.53.89,1.12,1.75,1.78,2.55.15.18.31.37.46.55.59.67,1.23,1.3,1.9,1.9.23.2.46.39.69.58h0s0,0,.01,0h0c.38.3.76.59,1.16.86.12.08.25.17.37.25.2.14.41.27.62.39.17.11.34.21.51.3.39.22.78.43,1.19.62.44.21.9.41,1.36.6.31.12.61.23.93.34.15.05.31.1.47.15.16.05.32.1.48.14.2.06.4.11.6.17.22.05.45.11.68.15.21.05.42.09.64.13,0,0,.01,0,.01,0,.02,0,.03,0,.04,0,.24.04.49.08.73.11.26.04.52.07.78.1.05,0,.09,0,.15.01s.09.01.15.02c.05,0,.11.01.17.01.02,0,.04,0,.05,0,.22.02.45.03.67.04.29.02.58.02.88.02h.25s.03,0,.04,0c11.02-.15,19.95-9.17,19.95-20.23,0-.26,0-.52-.02-.77ZM96.78,104.9c-.47-1.2-.71-2.45-.71-3.73,0-5.56,4.52-10.08,10.08-10.08.61,0,1.21.05,1.79.17,4.78.85,8.28,5.01,8.28,9.91,0,5.55-4.52,10.07-10.07,10.07-4.15,0-7.82-2.49-9.36-6.33Z"/>
    <path class="cls-1" d="M112.72,101.17c0,3.63-2.94,6.57-6.57,6.57-2.77,0-5.14-1.71-6.11-4.13-.3-.76-.46-1.58-.46-2.43,0-3.63,2.94-6.58,6.58-6.58.39,0,.78.04,1.15.11,3.08.54,5.42,3.23,5.42,6.47Z"/>
    <path class="cls-1" d="M120.08,93.81c-.1-2.78-.78-5.42-1.9-7.8,0-.01-.01-.03-.02-.04-.16-.33-.32-.65-.49-.97-.08-.16-.17-.32-.26-.48-.08-.14-.17-.29-.25-.42-.1-.15-.19-.31-.29-.46-.24-.38-.49-.74-.76-1.1-.09-.12-.18-.24-.27-.35-.07-.09-.14-.18-.21-.27-.12-.14-.24-.29-.35-.42-.09-.11-.19-.23-.29-.34-.1-.11-.2-.22-.3-.33-.1-.11-.2-.21-.31-.32-.19-.2-.38-.38-.57-.57-.02-.02-.04-.03-.05-.05-.33-.31-.66-.6-1-.88-.11-.1-.23-.19-.34-.28-.12-.09-.24-.18-.35-.27-.23-.17-.47-.35-.71-.52-.13-.09-.26-.17-.38-.25-.12-.08-.24-.16-.36-.24-.2-.12-.39-.24-.59-.36-.6-.35-1.21-.67-1.85-.96-.25-.11-.51-.22-.76-.32-.05-.02-.1-.04-.14-.05-.15-.06-.3-.12-.46-.18-.31-.12-.62-.23-.94-.32-.16-.05-.32-.1-.48-.14-.16-.05-.32-.09-.48-.13-.03-.01-.06-.02-.09-.02-.3-.08-.59-.14-.89-.21-.08-.01-.16-.04-.23-.04-.08-.02-.16-.03-.24-.05,0,0-.01,0-.02,0-.24-.04-.49-.08-.73-.11-.26-.04-.52-.07-.78-.1-.02,0-.04,0-.05,0-.03,0-.06,0-.09,0-.11-.01-.21-.02-.31-.03-.02,0-.04,0-.06,0-.22-.02-.44-.03-.67-.04-.29-.02-.58-.02-.87-.02-.1,0-.2,0-.3,0-1.53.05-2.41,1.77-1.57,3.06,1.25,1.93,1.94,4.26,1.84,6.75-.23,5.86-4.95,10.69-10.8,11.07-.65.04-1.29.03-1.91-.03-.12-.01-.25-.03-.38-.04-1.49-.2-2.89-.67-4.15-1.38-.24-.14-.48-.22-.73-.25-1.12-.15-2.23.67-2.25,1.88,0,.05,0,.1,0,.14,0,.05,0,.11.01.17,0,.1.02.19.03.28,0,0,0,.02,0,.03.01.15.02.3.04.46.03.35.07.68.12,1.02.02.15.05.3.07.46.04.23.08.46.12.69.1.49.22.98.36,1.46.09.32.19.64.29.95.05.15.11.31.17.47.31.85.67,1.66,1.09,2.45.14.26.29.52.44.78.53.89,1.12,1.75,1.77,2.55.15.18.31.37.47.55.59.68,1.23,1.32,1.91,1.91.23.2.46.39.69.58h0s0,0,.01,0h0c.37.3.75.58,1.14.86.12.08.24.17.37.25.21.14.41.27.62.4,0,0,.01,0,.01,0,.17.11.34.21.51.3.39.22.78.43,1.19.62.44.21.9.41,1.36.6.31.12.61.23.93.34.15.05.31.1.47.15.16.05.32.1.48.14.2.06.4.11.6.17.22.05.45.11.68.15.21.05.42.09.64.13.01,0,.02,0,.04,0,0,0,.01,0,.02,0,.24.04.49.08.73.11.25.04.51.07.76.09.05,0,.1.01.15.01.05,0,.09.01.15.02.06,0,.11.01.16.01.02,0,.04,0,.06,0,.22.02.44.03.67.04.29.02.58.02.88.02h.25s.02,0,.04,0c11.02-.15,19.94-9.17,19.94-20.23,0-.26,0-.52-.02-.77ZM106.15,111.23c-4.15,0-7.82-2.49-9.36-6.33-.47-1.2-.71-2.45-.71-3.73,0-5.56,4.52-10.08,10.08-10.08.61,0,1.21.05,1.79.17,4.78.85,8.28,5.01,8.28,9.91,0,5.55-4.52,10.07-10.07,10.07Z"/>
    <path class="cls-1" d="M100.03,103.6c-.3-.76-.46-1.58-.46-2.43,0-3.63,2.94-6.58,6.58-6.58.39,0,.78.04,1.15.11,3.08.54,5.42,3.23,5.42,6.47,0,3.63-2.94,6.57-6.57,6.57-2.77,0-5.14-1.71-6.11-4.13Z"/>
    <path class="cls-1" d="M120.09,93.82c-.1-2.78-.78-5.42-1.9-7.8,0,0-.01-.02-.02-.04-.16-.33-.32-.65-.49-.97-.08-.16-.17-.32-.27-.48-.08-.14-.17-.29-.25-.42-.09-.15-.19-.31-.29-.46-.24-.38-.49-.74-.76-1.1-.09-.12-.18-.24-.27-.36-.07-.09-.14-.17-.2-.26-.12-.14-.24-.29-.36-.42-.09-.11-.19-.23-.29-.34-.1-.11-.2-.22-.3-.33-.1-.11-.2-.21-.3-.32-.19-.2-.38-.39-.58-.58-.02-.01-.04-.03-.06-.05-.32-.31-.65-.61-1-.89-.11-.1-.23-.18-.34-.28-.11-.09-.23-.18-.35-.27-.23-.17-.47-.35-.71-.52-.13-.09-.26-.17-.38-.25-.12-.08-.24-.16-.36-.24-.2-.12-.4-.25-.61-.36-.6-.35-1.21-.67-1.85-.96-.25-.11-.51-.22-.76-.32-.05-.02-.1-.04-.14-.05-.15-.06-.3-.12-.46-.18-.31-.12-.62-.23-.94-.32-.16-.05-.32-.1-.48-.14-.16-.05-.32-.09-.48-.13-.03-.01-.06-.02-.09-.02-.3-.08-.59-.14-.89-.21-.08-.01-.16-.04-.23-.04-.08-.02-.16-.03-.24-.05,0,0-.01,0-.02,0-.24-.04-.49-.08-.73-.11-.25-.04-.51-.07-.76-.09-.03,0-.04,0-.07-.01-.03,0-.05,0-.08,0-.1,0-.21-.02-.31-.02-.02,0-.04,0-.06,0-.22-.02-.44-.03-.67-.04-.29-.02-.58-.02-.87-.02-.1,0-.2,0-.29,0-1.53.05-2.41,1.77-1.56,3.06,1.24,1.93,1.93,4.26,1.84,6.75-.23,5.86-4.95,10.69-10.8,11.07-.66.04-1.29.03-1.93-.04-.12-.01-.25-.03-.38-.04-1.49-.2-2.89-.67-4.15-1.38-.24-.14-.48-.22-.73-.25-1.12-.14-2.21.68-2.23,1.88,0,.05,0,.1,0,.14,0,.05,0,.11.01.17,0,.1.02.18.03.28,0,.01,0,.02,0,.03.01.15.02.31.04.46.03.35.07.68.12,1.02.02.15.04.3.07.45.04.23.08.46.12.69.1.5.22.98.36,1.46.09.32.19.63.3.95l.16.46c.31.85.68,1.67,1.1,2.46.14.26.29.52.43.78.53.89,1.12,1.75,1.78,2.55.15.18.31.37.46.55.59.67,1.23,1.3,1.9,1.9.23.2.46.39.69.58h0s0,0,.01,0h0c.38.3.76.59,1.16.86.12.08.25.17.37.25.2.14.41.27.62.39.17.11.34.21.51.3.39.22.78.43,1.19.62.44.21.9.41,1.36.6.31.12.61.23.93.34.15.05.31.1.47.15.16.05.32.1.48.14.2.06.4.11.6.17.22.05.45.11.68.15.21.05.42.09.64.13,0,0,.01,0,.01,0,.02,0,.03,0,.04,0,.24.04.49.08.73.11.26.04.52.07.78.1.05,0,.09,0,.15.01s.09.01.15.02c.05,0,.11.01.17.01.02,0,.04,0,.05,0,.22.02.45.03.67.04.29.02.58.02.88.02h.25s.03,0,.04,0c11.02-.15,19.95-9.17,19.95-20.23,0-.26,0-.52-.02-.77ZM96.78,104.9c-.47-1.2-.71-2.45-.71-3.73,0-5.56,4.52-10.08,10.08-10.08.61,0,1.21.05,1.79.17,4.78.85,8.28,5.01,8.28,9.91,0,5.55-4.52,10.07-10.07,10.07-4.15,0-7.82-2.49-9.36-6.33Z"/>
    <path class="cls-1" d="M112.72,101.17c0,3.63-2.94,6.57-6.57,6.57-2.77,0-5.14-1.71-6.11-4.13-.3-.76-.46-1.58-.46-2.43,0-3.63,2.94-6.58,6.58-6.58.39,0,.78.04,1.15.11,3.08.54,5.42,3.23,5.42,6.47Z"/>
    <path class="cls-1" d="M120.08,93.81c-.1-2.78-.78-5.42-1.9-7.8,0-.01-.01-.03-.02-.04-.16-.33-.32-.65-.49-.97-.08-.16-.17-.32-.26-.48-.08-.14-.17-.29-.25-.42-.1-.15-.19-.31-.29-.46-.24-.38-.49-.74-.76-1.1-.09-.12-.18-.24-.27-.35-.07-.09-.14-.18-.21-.27-.12-.14-.24-.29-.35-.42-.09-.11-.19-.23-.29-.34-.1-.11-.2-.22-.3-.33-.1-.11-.2-.21-.31-.32-.19-.2-.38-.38-.57-.57-.02-.02-.04-.03-.05-.05-.33-.31-.66-.6-1-.88-.11-.1-.23-.19-.34-.28-.12-.09-.24-.18-.35-.27-.23-.17-.47-.35-.71-.52-.13-.09-.26-.17-.38-.25-.12-.08-.24-.16-.36-.24-.2-.12-.39-.24-.59-.36-.6-.35-1.21-.67-1.85-.96-.25-.11-.51-.22-.76-.32-.05-.02-.1-.04-.14-.05-.15-.06-.3-.12-.46-.18-.31-.12-.62-.23-.94-.32-.16-.05-.32-.1-.48-.14-.16-.05-.32-.09-.48-.13-.03-.01-.06-.02-.09-.02-.3-.08-.59-.14-.89-.21-.08-.01-.16-.04-.23-.04-.08-.02-.16-.03-.24-.05,0,0-.01,0-.02,0-.24-.04-.49-.08-.73-.11-.26-.04-.52-.07-.78-.1-.02,0-.04,0-.05,0-.03,0-.06,0-.09,0-.11-.01-.21-.02-.31-.03-.02,0-.04,0-.06,0-.22-.02-.44-.03-.67-.04-.29-.02-.58-.02-.87-.02-.1,0-.2,0-.3,0-1.53.05-2.41,1.77-1.57,3.06,1.25,1.93,1.94,4.26,1.84,6.75-.23,5.86-4.95,10.69-10.8,11.07-.65.04-1.29.03-1.91-.03-.12-.01-.25-.03-.38-.04-1.49-.2-2.89-.67-4.15-1.38-.24-.14-.48-.22-.73-.25-1.12-.15-2.23.67-2.25,1.88,0,.05,0,.1,0,.14,0,.05,0,.11.01.17,0,.1.02.19.03.28,0,0,0,.02,0,.03.01.15.02.3.04.46.03.35.07.68.12,1.02.02.15.05.3.07.46.04.23.08.46.12.69.1.49.22.98.36,1.46.09.32.19.64.29.95.05.15.11.31.17.47.31.85.67,1.66,1.09,2.45.14.26.29.52.44.78.53.89,1.12,1.75,1.77,2.55.15.18.31.37.47.55.59.68,1.23,1.32,1.91,1.91.23.2.46.39.69.58h0s0,0,.01,0h0c.37.3.75.58,1.14.86.12.08.24.17.37.25.21.14.41.27.62.4,0,0,.01,0,.01,0,.17.11.34.21.51.3.39.22.78.43,1.19.62.44.21.9.41,1.36.6.31.12.61.23.93.34.15.05.31.1.47.15.16.05.32.1.48.14.2.06.4.11.6.17.22.05.45.11.68.15.21.05.42.09.64.13.01,0,.02,0,.04,0,0,0,.01,0,.02,0,.24.04.49.08.73.11.25.04.51.07.76.09.05,0,.1.01.15.01.05,0,.09.01.15.02.06,0,.11.01.16.01.02,0,.04,0,.06,0,.22.02.44.03.67.04.29.02.58.02.88.02h.25s.02,0,.04,0c11.02-.15,19.94-9.17,19.94-20.23,0-.26,0-.52-.02-.77ZM106.15,111.23c-4.15,0-7.82-2.49-9.36-6.33-.47-1.2-.71-2.45-.71-3.73,0-5.56,4.52-10.08,10.08-10.08.61,0,1.21.05,1.79.17,4.78.85,8.28,5.01,8.28,9.91,0,5.55-4.52,10.07-10.07,10.07Z"/>
  </g>
  <path class="cls-3" d="M101.04,36.79c-2.93.37-5.3,2.74-5.67,5.67-.55,4.3,3.08,7.93,7.38,7.38,2.93-.38,5.29-2.74,5.66-5.67.55-4.29-3.07-7.92-7.38-7.38ZM107.3,94.7c-.38-.07-.76-.11-1.15-.11-3.63,0-6.58,2.95-6.58,6.58,0,.86.17,1.68.46,2.43.97,2.42,3.34,4.13,6.11,4.13,3.63,0,6.57-2.94,6.57-6.57,0-3.24-2.34-5.93-5.42-6.47ZM107.3,94.7c-.38-.07-.76-.11-1.15-.11-3.63,0-6.58,2.95-6.58,6.58,0,.86.17,1.68.46,2.43.97,2.42,3.34,4.13,6.11,4.13,3.63,0,6.57-2.94,6.57-6.57,0-3.24-2.34-5.93-5.42-6.47ZM107.3,94.7c-.38-.07-.76-.11-1.15-.11-3.63,0-6.58,2.95-6.58,6.58,0,.86.17,1.68.46,2.43.97,2.42,3.34,4.13,6.11,4.13,3.63,0,6.57-2.94,6.57-6.57,0-3.24-2.34-5.93-5.42-6.47ZM107.3,94.7c-.38-.07-.76-.11-1.15-.11-3.63,0-6.58,2.95-6.58,6.58,0,.86.17,1.68.46,2.43.97,2.42,3.34,4.13,6.11,4.13,3.63,0,6.57-2.94,6.57-6.57,0-3.24-2.34-5.93-5.42-6.47ZM107.3,94.7c-.38-.07-.76-.11-1.15-.11-3.63,0-6.58,2.95-6.58,6.58,0,.86.17,1.68.46,2.43.97,2.42,3.34,4.13,6.11,4.13,3.63,0,6.57-2.94,6.57-6.57,0-3.24-2.34-5.93-5.42-6.47ZM107.3,94.7c-.38-.07-.76-.11-1.15-.11-3.63,0-6.58,2.95-6.58,6.58,0,.86.17,1.68.46,2.43.97,2.42,3.34,4.13,6.11,4.13,3.63,0,6.57-2.94,6.57-6.57,0-3.24-2.34-5.93-5.42-6.47ZM128.01,80.86c-3.63-8.22-10.58-14.26-19.04-16.6-2.89-.79-5.86-1.2-8.85-1.2s-5.98.4-8.86,1.2c-8.47,2.33-15.41,8.38-19.04,16.6-3.84,8.69-3.58,18.52.71,26.96l20.57,32.67c1.3,2.55,3.78,4.08,6.64,4.08h0c2.85,0,5.34-1.52,6.64-4.08l20.54-32.67c4.29-8.45,4.55-18.28.71-26.96ZM112.61,123.78c-2.2,4.57-6.63,7.61-11.57,7.94-.3.02-.61.03-.91.03-5.28,0-10.12-3.05-12.51-7.96-.43-.87-.07-1.92.8-2.34.87-.42,1.92-.06,2.34.81,1.88,3.85,5.91,6.25,10.05,5.97,3.68-.25,6.99-2.53,8.65-5.96.42-.88,1.46-1.24,2.33-.82.87.42,1.24,1.46.82,2.33ZM100.77,118.3l-.04.02h-.62s-.24,0-.24,0c-.36,0-.72,0-1.07-.03-.22,0-.46-.02-.7-.04-.04,0-.36-.03-.36-.03l-.23-.02c-.5-.05-.99-.11-1.53-.2h-.04l-.51-.09h-.01c-.69-.14-1.38-.31-2.04-.49-.17-.05-.36-.1-.56-.16l-.12-.04c-.15-.05-.29-.1-.44-.14-.36-.12-.73-.26-1.08-.4-.56-.23-1.1-.46-1.6-.7-.44-.21-.89-.45-1.36-.71-.22-.12-.45-.26-.66-.39-.24-.15-.47-.29-.71-.45l-.41-.28c-.12-.09-.24-.17-.37-.26h-.06l-.97-.77c-1.09-.88-2.1-1.86-3.03-2.91-.18-.21-.37-.43-.55-.65-.74-.92-1.44-1.92-2.06-2.98-.19-.33-.35-.61-.51-.9-.5-.94-.93-1.91-1.3-2.91l-.2-.56c-.12-.36-.23-.73-.34-1.1-.16-.56-.31-1.15-.42-1.73-.06-.29-.11-.56-.15-.83-.03-.17-.06-.33-.08-.5-.05-.32-.09-.65-.13-1.01l-.07-.13v-.71c-.01-.07-.02-.14-.02-.2,0-.05,0-.1-.01-.15v-.11s-.01-.11-.01-.11c0-.1,0-.22,0-.35.11-2.89,2.54-5.23,5.47-5.23.95,0,1.88.25,2.72.71,1.19.67,2.56,1.02,3.95,1.02.18,0,.36,0,.54-.01,4.05-.27,7.36-3.65,7.53-7.72.06-1.68-.38-3.31-1.29-4.71-1.07-1.66-1.18-3.79-.26-5.55.91-1.73,2.67-2.84,4.61-2.91.15,0,.29-.01.44-.01.35,0,.7.01,1.05.03.22,0,.46.02.71.04.05,0,.35.03.44.04.08,0,.18.02.29.03.55.05,1.11.14,1.64.23.22.04.43.08.65.12.33.07.64.14.96.21.09.02.18.04.26.07.15.04.3.08.46.12.21.06.4.11.58.17.4.12.77.24,1.12.38.17.06.33.12.49.18.06.02.23.09.23.09.3.12.6.25.89.38.96.43,1.93.96,2.85,1.54.12.07.26.17.4.26.07.04.44.29.44.29l.06.04c.25.18.49.36.74.55l.53.4.34.28c.34.27.7.59,1.07.94l.03.02.3.29c.17.17.34.34.51.51.07.07.16.17.26.27l.13.14.36.4.34.4.42.51.07.09.13.17c.1.12.2.27.31.4.32.43.62.86.89,1.28.12.18.24.36.34.55.1.15.22.36.33.56.09.15.19.34.29.52.18.33.36.68.54,1.05l.06.11.03.08c1.33,2.87,2.07,5.92,2.19,9.08.01.3.02.6.02.9,0,12.71-10.18,23.24-22.82,23.71ZM107.3,94.7c-.38-.07-.76-.11-1.15-.11-3.63,0-6.58,2.95-6.58,6.58,0,.86.17,1.68.46,2.43.97,2.42,3.34,4.13,6.11,4.13,3.63,0,6.57-2.94,6.57-6.57,0-3.24-2.34-5.93-5.42-6.47ZM107.3,94.7c-.38-.07-.76-.11-1.15-.11-3.63,0-6.58,2.95-6.58,6.58,0,.86.17,1.68.46,2.43.97,2.42,3.34,4.13,6.11,4.13,3.63,0,6.57-2.94,6.57-6.57,0-3.24-2.34-5.93-5.42-6.47ZM107.3,94.7c-.38-.07-.76-.11-1.15-.11-3.63,0-6.58,2.95-6.58,6.58,0,.86.17,1.68.46,2.43.97,2.42,3.34,4.13,6.11,4.13,3.63,0,6.57-2.94,6.57-6.57,0-3.24-2.34-5.93-5.42-6.47ZM107.3,94.7c-.38-.07-.76-.11-1.15-.11-3.63,0-6.58,2.95-6.58,6.58,0,.86.17,1.68.46,2.43.97,2.42,3.34,4.13,6.11,4.13,3.63,0,6.57-2.94,6.57-6.57,0-3.24-2.34-5.93-5.42-6.47ZM107.3,94.7c-.38-.07-.76-.11-1.15-.11-3.63,0-6.58,2.95-6.58,6.58,0,.86.17,1.68.46,2.43.97,2.42,3.34,4.13,6.11,4.13,3.63,0,6.57-2.94,6.57-6.57,0-3.24-2.34-5.93-5.42-6.47ZM107.3,94.7c-.38-.07-.76-.11-1.15-.11-3.63,0-6.58,2.95-6.58,6.58,0,.86.17,1.68.46,2.43.97,2.42,3.34,4.13,6.11,4.13,3.63,0,6.57-2.94,6.57-6.57,0-3.24-2.34-5.93-5.42-6.47ZM107.3,94.7c-.38-.07-.76-.11-1.15-.11-3.63,0-6.58,2.95-6.58,6.58,0,.86.17,1.68.46,2.43.97,2.42,3.34,4.13,6.11,4.13,3.63,0,6.57-2.94,6.57-6.57,0-3.24-2.34-5.93-5.42-6.47ZM107.3,94.7c-.38-.07-.76-.11-1.15-.11-3.63,0-6.58,2.95-6.58,6.58,0,.86.17,1.68.46,2.43.97,2.42,3.34,4.13,6.11,4.13,3.63,0,6.57-2.94,6.57-6.57,0-3.24-2.34-5.93-5.42-6.47ZM107.3,94.7c-.38-.07-.76-.11-1.15-.11-3.63,0-6.58,2.95-6.58,6.58,0,.86.17,1.68.46,2.43.97,2.42,3.34,4.13,6.11,4.13,3.63,0,6.57-2.94,6.57-6.57,0-3.24-2.34-5.93-5.42-6.47ZM128.01,80.86c-3.63-8.22-10.58-14.26-19.04-16.6-2.89-.79-5.86-1.2-8.85-1.2s-5.98.4-8.86,1.2c-8.47,2.33-15.41,8.38-19.04,16.6-3.84,8.69-3.58,18.52.71,26.96l20.57,32.67c1.3,2.55,3.78,4.08,6.64,4.08h0c2.85,0,5.34-1.52,6.64-4.08l20.54-32.67c4.29-8.45,4.55-18.28.71-26.96ZM112.61,123.78c-2.2,4.57-6.63,7.61-11.57,7.94-.3.02-.61.03-.91.03-5.28,0-10.12-3.05-12.51-7.96-.43-.87-.07-1.92.8-2.34.87-.42,1.92-.06,2.34.81,1.88,3.85,5.91,6.25,10.05,5.97,3.68-.25,6.99-2.53,8.65-5.96.42-.88,1.46-1.24,2.33-.82.87.42,1.24,1.46.82,2.33ZM100.77,118.3l-.04.02h-.62s-.24,0-.24,0c-.36,0-.72,0-1.07-.03-.22,0-.46-.02-.7-.04-.04,0-.36-.03-.36-.03l-.23-.02c-.5-.05-.99-.11-1.53-.2h-.04l-.51-.09h-.01c-.69-.14-1.38-.31-2.04-.49-.17-.05-.36-.1-.56-.16l-.12-.04c-.15-.05-.29-.1-.44-.14-.36-.12-.73-.26-1.08-.4-.56-.23-1.1-.46-1.6-.7-.44-.21-.89-.45-1.36-.71-.22-.12-.45-.26-.66-.39-.24-.15-.47-.29-.71-.45l-.41-.28c-.12-.09-.24-.17-.37-.26h-.06l-.97-.77c-1.09-.88-2.1-1.86-3.03-2.91-.18-.21-.37-.43-.55-.65-.74-.92-1.44-1.92-2.06-2.98-.19-.33-.35-.61-.51-.9-.5-.94-.93-1.91-1.3-2.91l-.2-.56c-.12-.36-.23-.73-.34-1.1-.16-.56-.31-1.15-.42-1.73-.06-.29-.11-.56-.15-.83-.03-.17-.06-.33-.08-.5-.05-.32-.09-.65-.13-1.01l-.07-.13v-.71c-.01-.07-.02-.14-.02-.2,0-.05,0-.1-.01-.15v-.11s-.01-.11-.01-.11c0-.1,0-.22,0-.35.11-2.89,2.54-5.23,5.47-5.23.95,0,1.88.25,2.72.71,1.19.67,2.56,1.02,3.95,1.02.18,0,.36,0,.54-.01,4.05-.27,7.36-3.65,7.53-7.72.06-1.68-.38-3.31-1.29-4.71-1.07-1.66-1.18-3.79-.26-5.55.91-1.73,2.67-2.84,4.61-2.91.15,0,.29-.01.44-.01.35,0,.7.01,1.05.03.22,0,.46.02.71.04.05,0,.35.03.44.04.08,0,.18.02.29.03.55.05,1.11.14,1.64.23.22.04.43.08.65.12.33.07.64.14.96.21.09.02.18.04.26.07.15.04.3.08.46.12.21.06.4.11.58.17.4.12.77.24,1.12.38.17.06.33.12.49.18.06.02.23.09.23.09.3.12.6.25.89.38.96.43,1.93.96,2.85,1.54.12.07.26.17.4.26.07.04.44.29.44.29l.06.04c.25.18.49.36.74.55l.53.4.34.28c.34.27.7.59,1.07.94l.03.02.3.29c.17.17.34.34.51.51.07.07.16.17.26.27l.13.14.36.4.34.4.42.51.07.09.13.17c.1.12.2.27.31.4.32.43.62.86.89,1.28.12.18.24.36.34.55.1.15.22.36.33.56.09.15.19.34.29.52.18.33.36.68.54,1.05l.06.11.03.08c1.33,2.87,2.07,5.92,2.19,9.08.01.3.02.6.02.9,0,12.71-10.18,23.24-22.82,23.71ZM107.3,94.7c-.38-.07-.76-.11-1.15-.11-3.63,0-6.58,2.95-6.58,6.58,0,.86.17,1.68.46,2.43.97,2.42,3.34,4.13,6.11,4.13,3.63,0,6.57-2.94,6.57-6.57,0-3.24-2.34-5.93-5.42-6.47ZM107.3,94.7c-.38-.07-.76-.11-1.15-.11-3.63,0-6.58,2.95-6.58,6.58,0,.86.17,1.68.46,2.43.97,2.42,3.34,4.13,6.11,4.13,3.63,0,6.57-2.94,6.57-6.57,0-3.24-2.34-5.93-5.42-6.47ZM107.3,94.7c-.38-.07-.76-.11-1.15-.11-3.63,0-6.58,2.95-6.58,6.58,0,.86.17,1.68.46,2.43.97,2.42,3.34,4.13,6.11,4.13,3.63,0,6.57-2.94,6.57-6.57,0-3.24-2.34-5.93-5.42-6.47ZM107.3,94.7c-.38-.07-.76-.11-1.15-.11-3.63,0-6.58,2.95-6.58,6.58,0,.86.17,1.68.46,2.43.97,2.42,3.34,4.13,6.11,4.13,3.63,0,6.57-2.94,6.57-6.57,0-3.24-2.34-5.93-5.42-6.47ZM107.3,94.7c-.38-.07-.76-.11-1.15-.11-3.63,0-6.58,2.95-6.58,6.58,0,.86.17,1.68.46,2.43.97,2.42,3.34,4.13,6.11,4.13,3.63,0,6.57-2.94,6.57-6.57,0-3.24-2.34-5.93-5.42-6.47ZM101.04,36.79c-2.93.37-5.3,2.74-5.67,5.67-.55,4.3,3.08,7.93,7.38,7.38,2.93-.38,5.29-2.74,5.66-5.67.55-4.29-3.07-7.92-7.38-7.38ZM101.04,36.79c-2.93.37-5.3,2.74-5.67,5.67-.55,4.3,3.08,7.93,7.38,7.38,2.93-.38,5.29-2.74,5.66-5.67.55-4.29-3.07-7.92-7.38-7.38ZM107.3,94.7c-.38-.07-.76-.11-1.15-.11-3.63,0-6.58,2.95-6.58,6.58,0,.86.17,1.68.46,2.43.97,2.42,3.34,4.13,6.11,4.13,3.63,0,6.57-2.94,6.57-6.57,0-3.24-2.34-5.93-5.42-6.47ZM107.3,94.7c-.38-.07-.76-.11-1.15-.11-3.63,0-6.58,2.95-6.58,6.58,0,.86.17,1.68.46,2.43.97,2.42,3.34,4.13,6.11,4.13,3.63,0,6.57-2.94,6.57-6.57,0-3.24-2.34-5.93-5.42-6.47ZM107.3,94.7c-.38-.07-.76-.11-1.15-.11-3.63,0-6.58,2.95-6.58,6.58,0,.86.17,1.68.46,2.43.97,2.42,3.34,4.13,6.11,4.13,3.63,0,6.57-2.94,6.57-6.57,0-3.24-2.34-5.93-5.42-6.47ZM107.3,94.7c-.38-.07-.76-.11-1.15-.11-3.63,0-6.58,2.95-6.58,6.58,0,.86.17,1.68.46,2.43.97,2.42,3.34,4.13,6.11,4.13,3.63,0,6.57-2.94,6.57-6.57,0-3.24-2.34-5.93-5.42-6.47ZM128.01,80.86c-3.63-8.22-10.58-14.26-19.04-16.6-2.89-.79-5.86-1.2-8.85-1.2s-5.98.4-8.86,1.2c-8.47,2.33-15.41,8.38-19.04,16.6-3.84,8.69-3.58,18.52.71,26.96l20.57,32.67c1.3,2.55,3.78,4.08,6.64,4.08h0c2.85,0,5.34-1.52,6.64-4.08l20.54-32.67c4.29-8.45,4.55-18.28.71-26.96ZM112.61,123.78c-2.2,4.57-6.63,7.61-11.57,7.94-.3.02-.61.03-.91.03-5.28,0-10.12-3.05-12.51-7.96-.43-.87-.07-1.92.8-2.34.87-.42,1.92-.06,2.34.81,1.88,3.85,5.91,6.25,10.05,5.97,3.68-.25,6.99-2.53,8.65-5.96.42-.88,1.46-1.24,2.33-.82.87.42,1.24,1.46.82,2.33ZM100.77,118.3l-.04.02h-.62s-.24,0-.24,0c-.36,0-.72,0-1.07-.03-.22,0-.46-.02-.7-.04-.04,0-.36-.03-.36-.03l-.23-.02c-.5-.05-.99-.11-1.53-.2h-.04l-.51-.09h-.01c-.69-.14-1.38-.31-2.04-.49-.17-.05-.36-.1-.56-.16l-.12-.04c-.15-.05-.29-.1-.44-.14-.36-.12-.73-.26-1.08-.4-.56-.23-1.1-.46-1.6-.7-.44-.21-.89-.45-1.36-.71-.22-.12-.45-.26-.66-.39-.24-.15-.47-.29-.71-.45l-.41-.28c-.12-.09-.24-.17-.37-.26h-.06l-.97-.77c-1.09-.88-2.1-1.86-3.03-2.91-.18-.21-.37-.43-.55-.65-.74-.92-1.44-1.92-2.06-2.98-.19-.33-.35-.61-.51-.9-.5-.94-.93-1.91-1.3-2.91l-.2-.56c-.12-.36-.23-.73-.34-1.1-.16-.56-.31-1.15-.42-1.73-.06-.29-.11-.56-.15-.83-.03-.17-.06-.33-.08-.5-.05-.32-.09-.65-.13-1.01l-.07-.13v-.71c-.01-.07-.02-.14-.02-.2,0-.05,0-.1-.01-.15v-.11s-.01-.11-.01-.11c0-.1,0-.22,0-.35.11-2.89,2.54-5.23,5.47-5.23.95,0,1.88.25,2.72.71,1.19.67,2.56,1.02,3.95,1.02.18,0,.36,0,.54-.01,4.05-.27,7.36-3.65,7.53-7.72.06-1.68-.38-3.31-1.29-4.71-1.07-1.66-1.18-3.79-.26-5.55.91-1.73,2.67-2.84,4.61-2.91.15,0,.29-.01.44-.01.35,0,.7.01,1.05.03.22,0,.46.02.71.04.05,0,.35.03.44.04.08,0,.18.02.29.03.55.05,1.11.14,1.64.23.22.04.43.08.65.12.33.07.64.14.96.21.09.02.18.04.26.07.15.04.3.08.46.12.21.06.4.11.58.17.4.12.77.24,1.12.38.17.06.33.12.49.18.06.02.23.09.23.09.3.12.6.25.89.38.96.43,1.93.96,2.85,1.54.12.07.26.17.4.26.07.04.44.29.44.29l.06.04c.25.18.49.36.74.55l.53.4.34.28c.34.27.7.59,1.07.94l.03.02.3.29c.17.17.34.34.51.51.07.07.16.17.26.27l.13.14.36.4.34.4.42.51.07.09.13.17c.1.12.2.27.31.4.32.43.62.86.89,1.28.12.18.24.36.34.55.1.15.22.36.33.56.09.15.19.34.29.52.18.33.36.68.54,1.05l.06.11.03.08c1.33,2.87,2.07,5.92,2.19,9.08.01.3.02.6.02.9,0,12.71-10.18,23.24-22.82,23.71ZM107.3,94.7c-.38-.07-.76-.11-1.15-.11-3.63,0-6.58,2.95-6.58,6.58,0,.86.17,1.68.46,2.43.97,2.42,3.34,4.13,6.11,4.13,3.63,0,6.57-2.94,6.57-6.57,0-3.24-2.34-5.93-5.42-6.47ZM107.3,94.7c-.38-.07-.76-.11-1.15-.11-3.63,0-6.58,2.95-6.58,6.58,0,.86.17,1.68.46,2.43.97,2.42,3.34,4.13,6.11,4.13,3.63,0,6.57-2.94,6.57-6.57,0-3.24-2.34-5.93-5.42-6.47ZM107.3,94.7c-.38-.07-.76-.11-1.15-.11-3.63,0-6.58,2.95-6.58,6.58,0,.86.17,1.68.46,2.43.97,2.42,3.34,4.13,6.11,4.13,3.63,0,6.57-2.94,6.57-6.57,0-3.24-2.34-5.93-5.42-6.47ZM107.3,94.7c-.38-.07-.76-.11-1.15-.11-3.63,0-6.58,2.95-6.58,6.58,0,.86.17,1.68.46,2.43.97,2.42,3.34,4.13,6.11,4.13,3.63,0,6.57-2.94,6.57-6.57,0-3.24-2.34-5.93-5.42-6.47ZM107.3,94.7c-.38-.07-.76-.11-1.15-.11-3.63,0-6.58,2.95-6.58,6.58,0,.86.17,1.68.46,2.43.97,2.42,3.34,4.13,6.11,4.13,3.63,0,6.57-2.94,6.57-6.57,0-3.24-2.34-5.93-5.42-6.47ZM128.01,80.86c-3.63-8.22-10.58-14.26-19.04-16.6-2.89-.79-5.86-1.2-8.85-1.2s-5.98.4-8.86,1.2c-8.47,2.33-15.41,8.38-19.04,16.6-3.84,8.69-3.58,18.52.71,26.96l20.57,32.67c1.3,2.55,3.78,4.08,6.64,4.08h0c2.85,0,5.34-1.52,6.64-4.08l20.54-32.67c4.29-8.45,4.55-18.28.71-26.96ZM112.61,123.78c-2.2,4.57-6.63,7.61-11.57,7.94-.3.02-.61.03-.91.03-5.28,0-10.12-3.05-12.51-7.96-.43-.87-.07-1.92.8-2.34.87-.42,1.92-.06,2.34.81,1.88,3.85,5.91,6.25,10.05,5.97,3.68-.25,6.99-2.53,8.65-5.96.42-.88,1.46-1.24,2.33-.82.87.42,1.24,1.46.82,2.33ZM100.77,118.3l-.04.02h-.62s-.24,0-.24,0c-.36,0-.72,0-1.07-.03-.22,0-.46-.02-.7-.04-.04,0-.36-.03-.36-.03l-.23-.02c-.5-.05-.99-.11-1.53-.2h-.04l-.51-.09h-.01c-.69-.14-1.38-.31-2.04-.49-.17-.05-.36-.1-.56-.16l-.12-.04c-.15-.05-.29-.1-.44-.14-.36-.12-.73-.26-1.08-.4-.56-.23-1.1-.46-1.6-.7-.44-.21-.89-.45-1.36-.71-.22-.12-.45-.26-.66-.39-.24-.15-.47-.29-.71-.45l-.41-.28c-.12-.09-.24-.17-.37-.26h-.06l-.97-.77c-1.09-.88-2.1-1.86-3.03-2.91-.18-.21-.37-.43-.55-.65-.74-.92-1.44-1.92-2.06-2.98-.19-.33-.35-.61-.51-.9-.5-.94-.93-1.91-1.3-2.91l-.2-.56c-.12-.36-.23-.73-.34-1.1-.16-.56-.31-1.15-.42-1.73-.06-.29-.11-.56-.15-.83-.03-.17-.06-.33-.08-.5-.05-.32-.09-.65-.13-1.01l-.07-.13v-.71c-.01-.07-.02-.14-.02-.2,0-.05,0-.1-.01-.15v-.11s-.01-.11-.01-.11c0-.1,0-.22,0-.35.11-2.89,2.54-5.23,5.47-5.23.95,0,1.88.25,2.72.71,1.19.67,2.56,1.02,3.95,1.02.18,0,.36,0,.54-.01,4.05-.27,7.36-3.65,7.53-7.72.06-1.68-.38-3.31-1.29-4.71-1.07-1.66-1.18-3.79-.26-5.55.91-1.73,2.67-2.84,4.61-2.91.15,0,.29-.01.44-.01.35,0,.7.01,1.05.03.22,0,.46.02.71.04.05,0,.35.03.44.04.08,0,.18.02.29.03.55.05,1.11.14,1.64.23.22.04.43.08.65.12.33.07.64.14.96.21.09.02.18.04.26.07.15.04.3.08.46.12.21.06.4.11.58.17.4.12.77.24,1.12.38.17.06.33.12.49.18.06.02.23.09.23.09.3.12.6.25.89.38.96.43,1.93.96,2.85,1.54.12.07.26.17.4.26.07.04.44.29.44.29l.06.04c.25.18.49.36.74.55l.53.4.34.28c.34.27.7.59,1.07.94l.03.02.3.29c.17.17.34.34.51.51.07.07.16.17.26.27l.13.14.36.4.34.4.42.51.07.09.13.17c.1.12.2.27.31.4.32.43.62.86.89,1.28.12.18.24.36.34.55.1.15.22.36.33.56.09.15.19.34.29.52.18.33.36.68.54,1.05l.06.11.03.08c1.33,2.87,2.07,5.92,2.19,9.08.01.3.02.6.02.9,0,12.71-10.18,23.24-22.82,23.71ZM107.3,94.7c-.38-.07-.76-.11-1.15-.11-3.63,0-6.58,2.95-6.58,6.58,0,.86.17,1.68.46,2.43.97,2.42,3.34,4.13,6.11,4.13,3.63,0,6.57-2.94,6.57-6.57,0-3.24-2.34-5.93-5.42-6.47ZM107.3,94.7c-.38-.07-.76-.11-1.15-.11-3.63,0-6.58,2.95-6.58,6.58,0,.86.17,1.68.46,2.43.97,2.42,3.34,4.13,6.11,4.13,3.63,0,6.57-2.94,6.57-6.57,0-3.24-2.34-5.93-5.42-6.47ZM107.3,94.7c-.38-.07-.76-.11-1.15-.11-3.63,0-6.58,2.95-6.58,6.58,0,.86.17,1.68.46,2.43.97,2.42,3.34,4.13,6.11,4.13,3.63,0,6.57-2.94,6.57-6.57,0-3.24-2.34-5.93-5.42-6.47ZM101.04,36.79c-2.93.37-5.3,2.74-5.67,5.67-.55,4.3,3.08,7.93,7.38,7.38,2.93-.38,5.29-2.74,5.66-5.67.55-4.29-3.07-7.92-7.38-7.38ZM101.04,36.79c-2.93.37-5.3,2.74-5.67,5.67-.55,4.3,3.08,7.93,7.38,7.38,2.93-.38,5.29-2.74,5.66-5.67.55-4.29-3.07-7.92-7.38-7.38ZM107.3,94.7c-.38-.07-.76-.11-1.15-.11-3.63,0-6.58,2.95-6.58,6.58,0,.86.17,1.68.46,2.43.97,2.42,3.34,4.13,6.11,4.13,3.63,0,6.57-2.94,6.57-6.57,0-3.24-2.34-5.93-5.42-6.47ZM107.3,94.7c-.38-.07-.76-.11-1.15-.11-3.63,0-6.58,2.95-6.58,6.58,0,.86.17,1.68.46,2.43.97,2.42,3.34,4.13,6.11,4.13,3.63,0,6.57-2.94,6.57-6.57,0-3.24-2.34-5.93-5.42-6.47ZM128.01,80.86c-3.63-8.22-10.58-14.26-19.04-16.6-2.89-.79-5.86-1.2-8.85-1.2s-5.98.4-8.86,1.2c-8.47,2.33-15.41,8.38-19.04,16.6-3.84,8.69-3.58,18.52.71,26.96l20.57,32.67c1.3,2.55,3.78,4.08,6.64,4.08h0c2.85,0,5.34-1.52,6.64-4.08l20.54-32.67c4.29-8.45,4.55-18.28.71-26.96ZM112.61,123.78c-2.2,4.57-6.63,7.61-11.57,7.94-.3.02-.61.03-.91.03-5.28,0-10.12-3.05-12.51-7.96-.43-.87-.07-1.92.8-2.34.87-.42,1.92-.06,2.34.81,1.88,3.85,5.91,6.25,10.05,5.97,3.68-.25,6.99-2.53,8.65-5.96.42-.88,1.46-1.24,2.33-.82.87.42,1.24,1.46.82,2.33ZM100.77,118.3l-.04.02h-.62s-.24,0-.24,0c-.36,0-.72,0-1.07-.03-.22,0-.46-.02-.7-.04-.04,0-.36-.03-.36-.03l-.23-.02c-.5-.05-.99-.11-1.53-.2h-.04l-.51-.09h-.01c-.69-.14-1.38-.31-2.04-.49-.17-.05-.36-.1-.56-.16l-.12-.04c-.15-.05-.29-.1-.44-.14-.36-.12-.73-.26-1.08-.4-.56-.23-1.1-.46-1.6-.7-.44-.21-.89-.45-1.36-.71-.22-.12-.45-.26-.66-.39-.24-.15-.47-.29-.71-.45l-.41-.28c-.12-.09-.24-.17-.37-.26h-.06l-.97-.77c-1.09-.88-2.1-1.86-3.03-2.91-.18-.21-.37-.43-.55-.65-.74-.92-1.44-1.92-2.06-2.98-.19-.33-.35-.61-.51-.9-.5-.94-.93-1.91-1.3-2.91l-.2-.56c-.12-.36-.23-.73-.34-1.1-.16-.56-.31-1.15-.42-1.73-.06-.29-.11-.56-.15-.83-.03-.17-.06-.33-.08-.5-.05-.32-.09-.65-.13-1.01l-.07-.13v-.71c-.01-.07-.02-.14-.02-.2,0-.05,0-.1-.01-.15v-.11s-.01-.11-.01-.11c0-.1,0-.22,0-.35.11-2.89,2.54-5.23,5.47-5.23.95,0,1.88.25,2.72.71,1.19.67,2.56,1.02,3.95,1.02.18,0,.36,0,.54-.01,4.05-.27,7.36-3.65,7.53-7.72.06-1.68-.38-3.31-1.29-4.71-1.07-1.66-1.18-3.79-.26-5.55.91-1.73,2.67-2.84,4.61-2.91.15,0,.29-.01.44-.01.35,0,.7.01,1.05.03.22,0,.46.02.71.04.05,0,.35.03.44.04.08,0,.18.02.29.03.55.05,1.11.14,1.64.23.22.04.43.08.65.12.33.07.64.14.96.21.09.02.18.04.26.07.15.04.3.08.46.12.21.06.4.11.58.17.4.12.77.24,1.12.38.17.06.33.12.49.18.06.02.23.09.23.09.3.12.6.25.89.38.96.43,1.93.96,2.85,1.54.12.07.26.17.4.26.07.04.44.29.44.29l.06.04c.25.18.49.36.74.55l.53.4.34.28c.34.27.7.59,1.07.94l.03.02.3.29c.17.17.34.34.51.51.07.07.16.17.26.27l.13.14.36.4.34.4.42.51.07.09.13.17c.1.12.2.27.31.4.32.43.62.86.89,1.28.12.18.24.36.34.55.1.15.22.36.33.56.09.15.19.34.29.52.18.33.36.68.54,1.05l.06.11.03.08c1.33,2.87,2.07,5.92,2.19,9.08.01.3.02.6.02.9,0,12.71-10.18,23.24-22.82,23.71ZM107.3,94.7c-.38-.07-.76-.11-1.15-.11-3.63,0-6.58,2.95-6.58,6.58,0,.86.17,1.68.46,2.43.97,2.42,3.34,4.13,6.11,4.13,3.63,0,6.57-2.94,6.57-6.57,0-3.24-2.34-5.93-5.42-6.47ZM128.01,80.86c-3.63-8.22-10.58-14.26-19.04-16.6-2.89-.79-5.86-1.2-8.85-1.2s-5.98.4-8.86,1.2c-8.47,2.33-15.41,8.38-19.04,16.6-3.84,8.69-3.58,18.52.71,26.96l20.57,32.67c1.3,2.55,3.78,4.08,6.64,4.08h0c2.85,0,5.34-1.52,6.64-4.08l20.54-32.67c4.29-8.45,4.55-18.28.71-26.96ZM112.61,123.78c-2.2,4.57-6.63,7.61-11.57,7.94-.3.02-.61.03-.91.03-5.28,0-10.12-3.05-12.51-7.96-.43-.87-.07-1.92.8-2.34.87-.42,1.92-.06,2.34.81,1.88,3.85,5.91,6.25,10.05,5.97,3.68-.25,6.99-2.53,8.65-5.96.42-.88,1.46-1.24,2.33-.82.87.42,1.24,1.46.82,2.33ZM100.77,118.3l-.04.02h-.62s-.24,0-.24,0c-.36,0-.72,0-1.07-.03-.22,0-.46-.02-.7-.04-.04,0-.36-.03-.36-.03l-.23-.02c-.5-.05-.99-.11-1.53-.2h-.04l-.51-.09h-.01c-.69-.14-1.38-.31-2.04-.49-.17-.05-.36-.1-.56-.16l-.12-.04c-.15-.05-.29-.1-.44-.14-.36-.12-.73-.26-1.08-.4-.56-.23-1.1-.46-1.6-.7-.44-.21-.89-.45-1.36-.71-.22-.12-.45-.26-.66-.39-.24-.15-.47-.29-.71-.45l-.41-.28c-.12-.09-.24-.17-.37-.26h-.06l-.97-.77c-1.09-.88-2.1-1.86-3.03-2.91-.18-.21-.37-.43-.55-.65-.74-.92-1.44-1.92-2.06-2.98-.19-.33-.35-.61-.51-.9-.5-.94-.93-1.91-1.3-2.91l-.2-.56c-.12-.36-.23-.73-.34-1.1-.16-.56-.31-1.15-.42-1.73-.06-.29-.11-.56-.15-.83-.03-.17-.06-.33-.08-.5-.05-.32-.09-.65-.13-1.01l-.07-.13v-.71c-.01-.07-.02-.14-.02-.2,0-.05,0-.1-.01-.15v-.11s-.01-.11-.01-.11c0-.1,0-.22,0-.35.11-2.89,2.54-5.23,5.47-5.23.95,0,1.88.25,2.72.71,1.19.67,2.56,1.02,3.95,1.02.18,0,.36,0,.54-.01,4.05-.27,7.36-3.65,7.53-7.72.06-1.68-.38-3.31-1.29-4.71-1.07-1.66-1.18-3.79-.26-5.55.91-1.73,2.67-2.84,4.61-2.91.15,0,.29-.01.44-.01.35,0,.7.01,1.05.03.22,0,.46.02.71.04.05,0,.35.03.44.04.08,0,.18.02.29.03.55.05,1.11.14,1.64.23.22.04.43.08.65.12.33.07.64.14.96.21.09.02.18.04.26.07.15.04.3.08.46.12.21.06.4.11.58.17.4.12.77.24,1.12.38.17.06.33.12.49.18.06.02.23.09.23.09.3.12.6.25.89.38.96.43,1.93.96,2.85,1.54.12.07.26.17.4.26.07.04.44.29.44.29l.06.04c.25.18.49.36.74.55l.53.4.34.28c.34.27.7.59,1.07.94l.03.02.3.29c.17.17.34.34.51.51.07.07.16.17.26.27l.13.14.36.4.34.4.42.51.07.09.13.17c.1.12.2.27.31.4.32.43.62.86.89,1.28.12.18.24.36.34.55.1.15.22.36.33.56.09.15.19.34.29.52.18.33.36.68.54,1.05l.06.11.03.08c1.33,2.87,2.07,5.92,2.19,9.08.01.3.02.6.02.9,0,12.71-10.18,23.24-22.82,23.71ZM107.3,94.7c-.38-.07-.76-.11-1.15-.11-3.63,0-6.58,2.95-6.58,6.58,0,.86.17,1.68.46,2.43.97,2.42,3.34,4.13,6.11,4.13,3.63,0,6.57-2.94,6.57-6.57,0-3.24-2.34-5.93-5.42-6.47ZM102.75,49.84c2.93-.38,5.29-2.74,5.66-5.67.55-4.29-3.07-7.92-7.38-7.38-2.93.37-5.3,2.74-5.67,5.67-.55,4.3,3.08,7.93,7.38,7.38ZM140.93,120.63v-.05c-.28-4.2-2.07-8.14-5.02-11.17,0,0,0-.01-.02-.02,1.91-4.41,2.99-9.08,3.23-13.77.06-1.34.06-2.68,0-4.03-.24-4.82-1.37-9.61-3.38-14.15-4.66-10.55-13.61-18.32-24.54-21.33-.52-.14-1.04-.27-1.57-.4-.01,0-.03,0-.05-.01,3.97-2.46,6.55-6.71,6.85-11.44.04-.57.04-1.15,0-1.73-.01-.29-.04-.58-.07-.88-.75-6.68-6.15-12.08-12.83-12.82-.5-.05-1-.08-1.5-.09h-.16c-7.8,0-14.19,6.16-14.55,13.87-.02.25-.02.5-.02.75,0,.29.01.57.03.85.28,4.42,2.57,8.44,6.07,10.96-.02,0-.04,0-.05,0-1.47.23-2.93.55-4.35.94-10.93,3.01-19.86,10.79-24.53,21.33-2.01,4.54-3.14,9.34-3.38,14.15-.07,1.33-.08,2.66,0,3.99.23,4.61,1.27,9.18,3.1,13.52l-.02.02c-3.15,3.06-5.05,7.12-5.34,11.51v.05c-.05.73-.06,1.45-.03,2.14.18,4.12,1.69,7.72,4.53,10.71.96,1.13,2.4,1.79,3.88,1.79h8.19c1.08,0,2.13-.46,2.86-1.26.25-.27.46-.58.62-.91l.12.19,7.01,11.12c2.75,5.27,8.13,8.54,14.09,8.54h.11c5.92-.04,11.25-3.3,13.98-8.54l6.89-10.96c.04.06.08.12.12.17.08.11.16.22.26.32.73.8,1.78,1.26,2.86,1.26h8.19c1.51,0,2.92-.65,3.89-1.8,2.83-2.99,4.35-6.59,4.53-10.71.04-.7.03-1.41-.03-2.14ZM124.35,131.77c-.21,0-.38-.17-.38-.39v-.04c.21-2.43,2.26-4.33,4.73-4.33h.11c.62.02,1.2.15,1.74.38.1.05.22.06.33.04h0c.14-.03.28-.11.36-.24,1.02-1.51,1.62-3.27,1.7-5.09.01-.31,0-.62-.02-.93v-.05c-.17-2.7-1.51-5.18-3.6-6.9-.05-.04-.1-.08-.15-.12l-.3.48-17.71,28.17c-2.11,4.15-6.29,6.74-10.93,6.77-.04,0-.08,0-.11,0-4.69,0-8.93-2.6-11.06-6.78l-18.08-28.73-.08-.11c-2.37,1.72-3.9,4.38-4.08,7.27v.05c-.02.31-.03.62-.02.93.08,1.82.69,3.58,1.7,5.09.14.2.37.29.59.24h0s.07-.02.1-.04c.57-.24,1.19-.38,1.85-.38h.11c2.43.06,4.42,1.94,4.63,4.33v.04h0c0,.22-.17.39-.39.39h-8.19c-.49,0-.96-.23-1.26-.61-2.34-2.43-3.52-5.25-3.66-8.54-.03-.57-.02-1.16.03-1.76v-.04c.29-4.33,2.59-8.29,6.16-10.77,0,0,0,0,.02-.01v-.02c-2.31-4.53-3.6-9.41-3.9-14.34-.08-1.32-.08-2.63-.01-3.95.22-4.4,1.24-8.77,3.08-12.93,4.23-9.58,12.35-16.64,22.26-19.37,2.81-.77,5.71-1.21,8.61-1.32.57-.03,1.03-.45,1.09-1.01,0-.02,0-.05,0-.07v-2.05c0-.5-.33-.94-.82-1.08-4.47-1.29-7.79-5.33-7.99-10.17,0-.14-.01-.29-.01-.43,0-.19,0-.38.02-.57.28-5.91,5.2-10.62,11.2-10.55.37,0,.74.02,1.12.07,5.08.57,9.17,4.65,9.74,9.73.02.23.04.46.05.69.02.36.02.71,0,1.06-.2,4.84-3.52,8.88-7.99,10.17-.48.14-.82.58-.82,1.08v2.29c0,.58.43,1.05,1,1.12,1.74.23,3.45.57,5.14,1.03,9.91,2.73,18.02,9.79,22.26,19.37,1.84,4.15,2.86,8.53,3.08,12.93.07,1.32.06,2.63-.01,3.95-.29,4.93-1.59,9.81-3.89,14.34l-.12.2s.02.01.02.02c3.37,2.5,5.54,6.33,5.82,10.52v.04c.04.6.05,1.18.03,1.76-.14,3.29-1.31,6.1-3.66,8.54-.3.38-.77.61-1.26.61h-8.19ZM108.97,64.27c-2.89-.79-5.86-1.2-8.85-1.2s-5.98.4-8.86,1.2c-8.47,2.33-15.41,8.38-19.04,16.6-3.84,8.69-3.58,18.52.71,26.96l20.57,32.67c1.3,2.55,3.78,4.08,6.64,4.08h0c2.85,0,5.34-1.52,6.64-4.08l20.54-32.67c4.29-8.45,4.55-18.28.71-26.96-3.63-8.22-10.58-14.26-19.04-16.6ZM112.61,123.78c-2.2,4.57-6.63,7.61-11.57,7.94-.3.02-.61.03-.91.03-5.28,0-10.12-3.05-12.51-7.96-.43-.87-.07-1.92.8-2.34.87-.42,1.92-.06,2.34.81,1.88,3.85,5.91,6.25,10.05,5.97,3.68-.25,6.99-2.53,8.65-5.96.42-.88,1.46-1.24,2.33-.82.87.42,1.24,1.46.82,2.33ZM100.77,118.3l-.04.02h-.62s-.24,0-.24,0c-.36,0-.72,0-1.07-.03-.22,0-.46-.02-.7-.04-.04,0-.36-.03-.36-.03l-.23-.02c-.5-.05-.99-.11-1.53-.2h-.04l-.51-.09h-.01c-.69-.14-1.38-.31-2.04-.49-.17-.05-.36-.1-.56-.16l-.12-.04c-.15-.05-.29-.1-.44-.14-.36-.12-.73-.26-1.08-.4-.56-.23-1.1-.46-1.6-.7-.44-.21-.89-.45-1.36-.71-.22-.12-.45-.26-.66-.39-.24-.15-.47-.29-.71-.45l-.41-.28c-.12-.09-.24-.17-.37-.26h-.06l-.97-.77c-1.09-.88-2.1-1.86-3.03-2.91-.18-.21-.37-.43-.55-.65-.74-.92-1.44-1.92-2.06-2.98-.19-.33-.35-.61-.51-.9-.5-.94-.93-1.91-1.3-2.91l-.2-.56c-.12-.36-.23-.73-.34-1.1-.16-.56-.31-1.15-.42-1.73-.06-.29-.11-.56-.15-.83-.03-.17-.06-.33-.08-.5-.05-.32-.09-.65-.13-1.01l-.07-.13v-.71c-.01-.07-.02-.14-.02-.2,0-.05,0-.1-.01-.15v-.11s-.01-.11-.01-.11c0-.1,0-.22,0-.35.11-2.89,2.54-5.23,5.47-5.23.95,0,1.88.25,2.72.71,1.19.67,2.56,1.02,3.95,1.02.18,0,.36,0,.54-.01,4.05-.27,7.36-3.65,7.53-7.72.06-1.68-.38-3.31-1.29-4.71-1.07-1.66-1.18-3.79-.26-5.55.91-1.73,2.67-2.84,4.61-2.91.15,0,.29-.01.44-.01.35,0,.7.01,1.05.03.22,0,.46.02.71.04.05,0,.35.03.44.04.08,0,.18.02.29.03.55.05,1.11.14,1.64.23.22.04.43.08.65.12.33.07.64.14.96.21.09.02.18.04.26.07.15.04.3.08.46.12.21.06.4.11.58.17.4.12.77.24,1.12.38.17.06.33.12.49.18.06.02.23.09.23.09.3.12.6.25.89.38.96.43,1.93.96,2.85,1.54.12.07.26.17.4.26.07.04.44.29.44.29l.06.04c.25.18.49.36.74.55l.53.4.34.28c.34.27.7.59,1.07.94l.03.02.3.29c.17.17.34.34.51.51.07.07.16.17.26.27l.13.14.36.4.34.4.42.51.07.09.13.17c.1.12.2.27.31.4.32.43.62.86.89,1.28.12.18.24.36.34.55.1.15.22.36.33.56.09.15.19.34.29.52.18.33.36.68.54,1.05l.06.11.03.08c1.33,2.87,2.07,5.92,2.19,9.08.01.3.02.6.02.9,0,12.71-10.18,23.24-22.82,23.71ZM107.3,94.7c-.38-.07-.76-.11-1.15-.11-3.63,0-6.58,2.95-6.58,6.58,0,.86.17,1.68.46,2.43.97,2.42,3.34,4.13,6.11,4.13,3.63,0,6.57-2.94,6.57-6.57,0-3.24-2.34-5.93-5.42-6.47ZM102.75,49.84c2.93-.38,5.29-2.74,5.66-5.67.55-4.29-3.07-7.92-7.38-7.38-2.93.37-5.3,2.74-5.67,5.67-.55,4.3,3.08,7.93,7.38,7.38ZM101.04,36.79c-2.93.37-5.3,2.74-5.67,5.67-.55,4.3,3.08,7.93,7.38,7.38,2.93-.38,5.29-2.74,5.66-5.67.55-4.29-3.07-7.92-7.38-7.38ZM107.3,94.7c-.38-.07-.76-.11-1.15-.11-3.63,0-6.58,2.95-6.58,6.58,0,.86.17,1.68.46,2.43.97,2.42,3.34,4.13,6.11,4.13,3.63,0,6.57-2.94,6.57-6.57,0-3.24-2.34-5.93-5.42-6.47ZM107.3,94.7c-.38-.07-.76-.11-1.15-.11-3.63,0-6.58,2.95-6.58,6.58,0,.86.17,1.68.46,2.43.97,2.42,3.34,4.13,6.11,4.13,3.63,0,6.57-2.94,6.57-6.57,0-3.24-2.34-5.93-5.42-6.47ZM128.01,80.86c-3.63-8.22-10.58-14.26-19.04-16.6-2.89-.79-5.86-1.2-8.85-1.2s-5.98.4-8.86,1.2c-8.47,2.33-15.41,8.38-19.04,16.6-3.84,8.69-3.58,18.52.71,26.96l20.57,32.67c1.3,2.55,3.78,4.08,6.64,4.08h0c2.85,0,5.34-1.52,6.64-4.08l20.54-32.67c4.29-8.45,4.55-18.28.71-26.96ZM112.61,123.78c-2.2,4.57-6.63,7.61-11.57,7.94-.3.02-.61.03-.91.03-5.28,0-10.12-3.05-12.51-7.96-.43-.87-.07-1.92.8-2.34.87-.42,1.92-.06,2.34.81,1.88,3.85,5.91,6.25,10.05,5.97,3.68-.25,6.99-2.53,8.65-5.96.42-.88,1.46-1.24,2.33-.82.87.42,1.24,1.46.82,2.33ZM100.77,118.3l-.04.02h-.62s-.24,0-.24,0c-.36,0-.72,0-1.07-.03-.22,0-.46-.02-.7-.04-.04,0-.36-.03-.36-.03l-.23-.02c-.5-.05-.99-.11-1.53-.2h-.04l-.51-.09h-.01c-.69-.14-1.38-.31-2.04-.49-.17-.05-.36-.1-.56-.16l-.12-.04c-.15-.05-.29-.1-.44-.14-.36-.12-.73-.26-1.08-.4-.56-.23-1.1-.46-1.6-.7-.44-.21-.89-.45-1.36-.71-.22-.12-.45-.26-.66-.39-.24-.15-.47-.29-.71-.45l-.41-.28c-.12-.09-.24-.17-.37-.26h-.06l-.97-.77c-1.09-.88-2.1-1.86-3.03-2.91-.18-.21-.37-.43-.55-.65-.74-.92-1.44-1.92-2.06-2.98-.19-.33-.35-.61-.51-.9-.5-.94-.93-1.91-1.3-2.91l-.2-.56c-.12-.36-.23-.73-.34-1.1-.16-.56-.31-1.15-.42-1.73-.06-.29-.11-.56-.15-.83-.03-.17-.06-.33-.08-.5-.05-.32-.09-.65-.13-1.01l-.07-.13v-.71c-.01-.07-.02-.14-.02-.2,0-.05,0-.1-.01-.15v-.11s-.01-.11-.01-.11c0-.1,0-.22,0-.35.11-2.89,2.54-5.23,5.47-5.23.95,0,1.88.25,2.72.71,1.19.67,2.56,1.02,3.95,1.02.18,0,.36,0,.54-.01,4.05-.27,7.36-3.65,7.53-7.72.06-1.68-.38-3.31-1.29-4.71-1.07-1.66-1.18-3.79-.26-5.55.91-1.73,2.67-2.84,4.61-2.91.15,0,.29-.01.44-.01.35,0,.7.01,1.05.03.22,0,.46.02.71.04.05,0,.35.03.44.04.08,0,.18.02.29.03.55.05,1.11.14,1.64.23.22.04.43.08.65.12.33.07.64.14.96.21.09.02.18.04.26.07.15.04.3.08.46.12.21.06.4.11.58.17.4.12.77.24,1.12.38.17.06.33.12.49.18.06.02.23.09.23.09.3.12.6.25.89.38.96.43,1.93.96,2.85,1.54.12.07.26.17.4.26.07.04.44.29.44.29l.06.04c.25.18.49.36.74.55l.53.4.34.28c.34.27.7.59,1.07.94l.03.02.3.29c.17.17.34.34.51.51.07.07.16.17.26.27l.13.14.36.4.34.4.42.51.07.09.13.17c.1.12.2.27.31.4.32.43.62.86.89,1.28.12.18.24.36.34.55.1.15.22.36.33.56.09.15.19.34.29.52.18.33.36.68.54,1.05l.06.11.03.08c1.33,2.87,2.07,5.92,2.19,9.08.01.3.02.6.02.9,0,12.71-10.18,23.24-22.82,23.71ZM107.3,94.7c-.38-.07-.76-.11-1.15-.11-3.63,0-6.58,2.95-6.58,6.58,0,.86.17,1.68.46,2.43.97,2.42,3.34,4.13,6.11,4.13,3.63,0,6.57-2.94,6.57-6.57,0-3.24-2.34-5.93-5.42-6.47ZM107.3,94.7c-.38-.07-.76-.11-1.15-.11-3.63,0-6.58,2.95-6.58,6.58,0,.86.17,1.68.46,2.43.97,2.42,3.34,4.13,6.11,4.13,3.63,0,6.57-2.94,6.57-6.57,0-3.24-2.34-5.93-5.42-6.47ZM107.3,94.7c-.38-.07-.76-.11-1.15-.11-3.63,0-6.58,2.95-6.58,6.58,0,.86.17,1.68.46,2.43.97,2.42,3.34,4.13,6.11,4.13,3.63,0,6.57-2.94,6.57-6.57,0-3.24-2.34-5.93-5.42-6.47ZM128.01,80.86c-3.63-8.22-10.58-14.26-19.04-16.6-2.89-.79-5.86-1.2-8.85-1.2s-5.98.4-8.86,1.2c-8.47,2.33-15.41,8.38-19.04,16.6-3.84,8.69-3.58,18.52.71,26.96l20.57,32.67c1.3,2.55,3.78,4.08,6.64,4.08h0c2.85,0,5.34-1.52,6.64-4.08l20.54-32.67c4.29-8.45,4.55-18.28.71-26.96ZM112.61,123.78c-2.2,4.57-6.63,7.61-11.57,7.94-.3.02-.61.03-.91.03-5.28,0-10.12-3.05-12.51-7.96-.43-.87-.07-1.92.8-2.34.87-.42,1.92-.06,2.34.81,1.88,3.85,5.91,6.25,10.05,5.97,3.68-.25,6.99-2.53,8.65-5.96.42-.88,1.46-1.24,2.33-.82.87.42,1.24,1.46.82,2.33ZM100.77,118.3l-.04.02h-.62s-.24,0-.24,0c-.36,0-.72,0-1.07-.03-.22,0-.46-.02-.7-.04-.04,0-.36-.03-.36-.03l-.23-.02c-.5-.05-.99-.11-1.53-.2h-.04l-.51-.09h-.01c-.69-.14-1.38-.31-2.04-.49-.17-.05-.36-.1-.56-.16l-.12-.04c-.15-.05-.29-.1-.44-.14-.36-.12-.73-.26-1.08-.4-.56-.23-1.1-.46-1.6-.7-.44-.21-.89-.45-1.36-.71-.22-.12-.45-.26-.66-.39-.24-.15-.47-.29-.71-.45l-.41-.28c-.12-.09-.24-.17-.37-.26h-.06l-.97-.77c-1.09-.88-2.1-1.86-3.03-2.91-.18-.21-.37-.43-.55-.65-.74-.92-1.44-1.92-2.06-2.98-.19-.33-.35-.61-.51-.9-.5-.94-.93-1.91-1.3-2.91l-.2-.56c-.12-.36-.23-.73-.34-1.1-.16-.56-.31-1.15-.42-1.73-.06-.29-.11-.56-.15-.83-.03-.17-.06-.33-.08-.5-.05-.32-.09-.65-.13-1.01l-.07-.13v-.71c-.01-.07-.02-.14-.02-.2,0-.05,0-.1-.01-.15v-.11s-.01-.11-.01-.11c0-.1,0-.22,0-.35.11-2.89,2.54-5.23,5.47-5.23.95,0,1.88.25,2.72.71,1.19.67,2.56,1.02,3.95,1.02.18,0,.36,0,.54-.01,4.05-.27,7.36-3.65,7.53-7.72.06-1.68-.38-3.31-1.29-4.71-1.07-1.66-1.18-3.79-.26-5.55.91-1.73,2.67-2.84,4.61-2.91.15,0,.29-.01.44-.01.35,0,.7.01,1.05.03.22,0,.46.02.71.04.05,0,.35.03.44.04.08,0,.18.02.29.03.55.05,1.11.14,1.64.23.22.04.43.08.65.12.33.07.64.14.96.21.09.02.18.04.26.07.15.04.3.08.46.12.21.06.4.11.58.17.4.12.77.24,1.12.38.17.06.33.12.49.18.06.02.23.09.23.09.3.12.6.25.89.38.96.43,1.93.96,2.85,1.54.12.07.26.17.4.26.07.04.44.29.44.29l.06.04c.25.18.49.36.74.55l.53.4.34.28c.34.27.7.59,1.07.94l.03.02.3.29c.17.17.34.34.51.51.07.07.16.17.26.27l.13.14.36.4.34.4.42.51.07.09.13.17c.1.12.2.27.31.4.32.43.62.86.89,1.28.12.18.24.36.34.55.1.15.22.36.33.56.09.15.19.34.29.52.18.33.36.68.54,1.05l.06.11.03.08c1.33,2.87,2.07,5.92,2.19,9.08.01.3.02.6.02.9,0,12.71-10.18,23.24-22.82,23.71ZM107.3,94.7c-.38-.07-.76-.11-1.15-.11-3.63,0-6.58,2.95-6.58,6.58,0,.86.17,1.68.46,2.43.97,2.42,3.34,4.13,6.11,4.13,3.63,0,6.57-2.94,6.57-6.57,0-3.24-2.34-5.93-5.42-6.47ZM107.3,94.7c-.38-.07-.76-.11-1.15-.11-3.63,0-6.58,2.95-6.58,6.58,0,.86.17,1.68.46,2.43.97,2.42,3.34,4.13,6.11,4.13,3.63,0,6.57-2.94,6.57-6.57,0-3.24-2.34-5.93-5.42-6.47ZM107.3,94.7c-.38-.07-.76-.11-1.15-.11-3.63,0-6.58,2.95-6.58,6.58,0,.86.17,1.68.46,2.43.97,2.42,3.34,4.13,6.11,4.13,3.63,0,6.57-2.94,6.57-6.57,0-3.24-2.34-5.93-5.42-6.47ZM101.04,36.79c-2.93.37-5.3,2.74-5.67,5.67-.55,4.3,3.08,7.93,7.38,7.38,2.93-.38,5.29-2.74,5.66-5.67.55-4.29-3.07-7.92-7.38-7.38ZM101.04,36.79c-2.93.37-5.3,2.74-5.67,5.67-.55,4.3,3.08,7.93,7.38,7.38,2.93-.38,5.29-2.74,5.66-5.67.55-4.29-3.07-7.92-7.38-7.38ZM107.3,94.7c-.38-.07-.76-.11-1.15-.11-3.63,0-6.58,2.95-6.58,6.58,0,.86.17,1.68.46,2.43.97,2.42,3.34,4.13,6.11,4.13,3.63,0,6.57-2.94,6.57-6.57,0-3.24-2.34-5.93-5.42-6.47ZM107.3,94.7c-.38-.07-.76-.11-1.15-.11-3.63,0-6.58,2.95-6.58,6.58,0,.86.17,1.68.46,2.43.97,2.42,3.34,4.13,6.11,4.13,3.63,0,6.57-2.94,6.57-6.57,0-3.24-2.34-5.93-5.42-6.47ZM107.3,94.7c-.38-.07-.76-.11-1.15-.11-3.63,0-6.58,2.95-6.58,6.58,0,.86.17,1.68.46,2.43.97,2.42,3.34,4.13,6.11,4.13,3.63,0,6.57-2.94,6.57-6.57,0-3.24-2.34-5.93-5.42-6.47ZM107.3,94.7c-.38-.07-.76-.11-1.15-.11-3.63,0-6.58,2.95-6.58,6.58,0,.86.17,1.68.46,2.43.97,2.42,3.34,4.13,6.11,4.13,3.63,0,6.57-2.94,6.57-6.57,0-3.24-2.34-5.93-5.42-6.47ZM128.01,80.86c-3.63-8.22-10.58-14.26-19.04-16.6-2.89-.79-5.86-1.2-8.85-1.2s-5.98.4-8.86,1.2c-8.47,2.33-15.41,8.38-19.04,16.6-3.84,8.69-3.58,18.52.71,26.96l20.57,32.67c1.3,2.55,3.78,4.08,6.64,4.08h0c2.85,0,5.34-1.52,6.64-4.08l20.54-32.67c4.29-8.45,4.55-18.28.71-26.96ZM112.61,123.78c-2.2,4.57-6.63,7.61-11.57,7.94-.3.02-.61.03-.91.03-5.28,0-10.12-3.05-12.51-7.96-.43-.87-.07-1.92.8-2.34.87-.42,1.92-.06,2.34.81,1.88,3.85,5.91,6.25,10.05,5.97,3.68-.25,6.99-2.53,8.65-5.96.42-.88,1.46-1.24,2.33-.82.87.42,1.24,1.46.82,2.33ZM100.77,118.3l-.04.02h-.62s-.24,0-.24,0c-.36,0-.72,0-1.07-.03-.22,0-.46-.02-.7-.04-.04,0-.36-.03-.36-.03l-.23-.02c-.5-.05-.99-.11-1.53-.2h-.04l-.51-.09h-.01c-.69-.14-1.38-.31-2.04-.49-.17-.05-.36-.1-.56-.16l-.12-.04c-.15-.05-.29-.1-.44-.14-.36-.12-.73-.26-1.08-.4-.56-.23-1.1-.46-1.6-.7-.44-.21-.89-.45-1.36-.71-.22-.12-.45-.26-.66-.39-.24-.15-.47-.29-.71-.45l-.41-.28c-.12-.09-.24-.17-.37-.26h-.06l-.97-.77c-1.09-.88-2.1-1.86-3.03-2.91-.18-.21-.37-.43-.55-.65-.74-.92-1.44-1.92-2.06-2.98-.19-.33-.35-.61-.51-.9-.5-.94-.93-1.91-1.3-2.91l-.2-.56c-.12-.36-.23-.73-.34-1.1-.16-.56-.31-1.15-.42-1.73-.06-.29-.11-.56-.15-.83-.03-.17-.06-.33-.08-.5-.05-.32-.09-.65-.13-1.01l-.07-.13v-.71c-.01-.07-.02-.14-.02-.2,0-.05,0-.1-.01-.15v-.11s-.01-.11-.01-.11c0-.1,0-.22,0-.35.11-2.89,2.54-5.23,5.47-5.23.95,0,1.88.25,2.72.71,1.19.67,2.56,1.02,3.95,1.02.18,0,.36,0,.54-.01,4.05-.27,7.36-3.65,7.53-7.72.06-1.68-.38-3.31-1.29-4.71-1.07-1.66-1.18-3.79-.26-5.55.91-1.73,2.67-2.84,4.61-2.91.15,0,.29-.01.44-.01.35,0,.7.01,1.05.03.22,0,.46.02.71.04.05,0,.35.03.44.04.08,0,.18.02.29.03.55.05,1.11.14,1.64.23.22.04.43.08.65.12.33.07.64.14.96.21.09.02.18.04.26.07.15.04.3.08.46.12.21.06.4.11.58.17.4.12.77.24,1.12.38.17.06.33.12.49.18.06.02.23.09.23.09.3.12.6.25.89.38.96.43,1.93.96,2.85,1.54.12.07.26.17.4.26.07.04.44.29.44.29l.06.04c.25.18.49.36.74.55l.53.4.34.28c.34.27.7.59,1.07.94l.03.02.3.29c.17.17.34.34.51.51.07.07.16.17.26.27l.13.14.36.4.34.4.42.51.07.09.13.17c.1.12.2.27.31.4.32.43.62.86.89,1.28.12.18.24.36.34.55.1.15.22.36.33.56.09.15.19.34.29.52.18.33.36.68.54,1.05l.06.11.03.08c1.33,2.87,2.07,5.92,2.19,9.08.01.3.02.6.02.9,0,12.71-10.18,23.24-22.82,23.71ZM107.3,94.7c-.38-.07-.76-.11-1.15-.11-3.63,0-6.58,2.95-6.58,6.58,0,.86.17,1.68.46,2.43.97,2.42,3.34,4.13,6.11,4.13,3.63,0,6.57-2.94,6.57-6.57,0-3.24-2.34-5.93-5.42-6.47ZM107.3,94.7c-.38-.07-.76-.11-1.15-.11-3.63,0-6.58,2.95-6.58,6.58,0,.86.17,1.68.46,2.43.97,2.42,3.34,4.13,6.11,4.13,3.63,0,6.57-2.94,6.57-6.57,0-3.24-2.34-5.93-5.42-6.47ZM107.3,94.7c-.38-.07-.76-.11-1.15-.11-3.63,0-6.58,2.95-6.58,6.58,0,.86.17,1.68.46,2.43.97,2.42,3.34,4.13,6.11,4.13,3.63,0,6.57-2.94,6.57-6.57,0-3.24-2.34-5.93-5.42-6.47ZM107.3,94.7c-.38-.07-.76-.11-1.15-.11-3.63,0-6.58,2.95-6.58,6.58,0,.86.17,1.68.46,2.43.97,2.42,3.34,4.13,6.11,4.13,3.63,0,6.57-2.94,6.57-6.57,0-3.24-2.34-5.93-5.42-6.47ZM107.3,94.7c-.38-.07-.76-.11-1.15-.11-3.63,0-6.58,2.95-6.58,6.58,0,.86.17,1.68.46,2.43.97,2.42,3.34,4.13,6.11,4.13,3.63,0,6.57-2.94,6.57-6.57,0-3.24-2.34-5.93-5.42-6.47ZM107.3,94.7c-.38-.07-.76-.11-1.15-.11-3.63,0-6.58,2.95-6.58,6.58,0,.86.17,1.68.46,2.43.97,2.42,3.34,4.13,6.11,4.13,3.63,0,6.57-2.94,6.57-6.57,0-3.24-2.34-5.93-5.42-6.47ZM107.3,94.7c-.38-.07-.76-.11-1.15-.11-3.63,0-6.58,2.95-6.58,6.58,0,.86.17,1.68.46,2.43.97,2.42,3.34,4.13,6.11,4.13,3.63,0,6.57-2.94,6.57-6.57,0-3.24-2.34-5.93-5.42-6.47ZM128.01,80.86c-3.63-8.22-10.58-14.26-19.04-16.6-2.89-.79-5.86-1.2-8.85-1.2s-5.98.4-8.86,1.2c-8.47,2.33-15.41,8.38-19.04,16.6-3.84,8.69-3.58,18.52.71,26.96l20.57,32.67c1.3,2.55,3.78,4.08,6.64,4.08h0c2.85,0,5.34-1.52,6.64-4.08l20.54-32.67c4.29-8.45,4.55-18.28.71-26.96ZM112.61,123.78c-2.2,4.57-6.63,7.61-11.57,7.94-.3.02-.61.03-.91.03-5.28,0-10.12-3.05-12.51-7.96-.43-.87-.07-1.92.8-2.34.87-.42,1.92-.06,2.34.81,1.88,3.85,5.91,6.25,10.05,5.97,3.68-.25,6.99-2.53,8.65-5.96.42-.88,1.46-1.24,2.33-.82.87.42,1.24,1.46.82,2.33ZM100.77,118.3l-.04.02h-.62s-.24,0-.24,0c-.36,0-.72,0-1.07-.03-.22,0-.46-.02-.7-.04-.04,0-.36-.03-.36-.03l-.23-.02c-.5-.05-.99-.11-1.53-.2h-.04l-.51-.09h-.01c-.69-.14-1.38-.31-2.04-.49-.17-.05-.36-.1-.56-.16l-.12-.04c-.15-.05-.29-.1-.44-.14-.36-.12-.73-.26-1.08-.4-.56-.23-1.1-.46-1.6-.7-.44-.21-.89-.45-1.36-.71-.22-.12-.45-.26-.66-.39-.24-.15-.47-.29-.71-.45l-.41-.28c-.12-.09-.24-.17-.37-.26h-.06l-.97-.77c-1.09-.88-2.1-1.86-3.03-2.91-.18-.21-.37-.43-.55-.65-.74-.92-1.44-1.92-2.06-2.98-.19-.33-.35-.61-.51-.9-.5-.94-.93-1.91-1.3-2.91l-.2-.56c-.12-.36-.23-.73-.34-1.1-.16-.56-.31-1.15-.42-1.73-.06-.29-.11-.56-.15-.83-.03-.17-.06-.33-.08-.5-.05-.32-.09-.65-.13-1.01l-.07-.13v-.71c-.01-.07-.02-.14-.02-.2,0-.05,0-.1-.01-.15v-.11s-.01-.11-.01-.11c0-.1,0-.22,0-.35.11-2.89,2.54-5.23,5.47-5.23.95,0,1.88.25,2.72.71,1.19.67,2.56,1.02,3.95,1.02.18,0,.36,0,.54-.01,4.05-.27,7.36-3.65,7.53-7.72.06-1.68-.38-3.31-1.29-4.71-1.07-1.66-1.18-3.79-.26-5.55.91-1.73,2.67-2.84,4.61-2.91.15,0,.29-.01.44-.01.35,0,.7.01,1.05.03.22,0,.46.02.71.04.05,0,.35.03.44.04.08,0,.18.02.29.03.55.05,1.11.14,1.64.23.22.04.43.08.65.12.33.07.64.14.96.21.09.02.18.04.26.07.15.04.3.08.46.12.21.06.4.11.58.17.4.12.77.24,1.12.38.17.06.33.12.49.18.06.02.23.09.23.09.3.12.6.25.89.38.96.43,1.93.96,2.85,1.54.12.07.26.17.4.26.07.04.44.29.44.29l.06.04c.25.18.49.36.74.55l.53.4.34.28c.34.27.7.59,1.07.94l.03.02.3.29c.17.17.34.34.51.51.07.07.16.17.26.27l.13.14.36.4.34.4.42.51.07.09.13.17c.1.12.2.27.31.4.32.43.62.86.89,1.28.12.18.24.36.34.55.1.15.22.36.33.56.09.15.19.34.29.52.18.33.36.68.54,1.05l.06.11.03.08c1.33,2.87,2.07,5.92,2.19,9.08.01.3.02.6.02.9,0,12.71-10.18,23.24-22.82,23.71ZM107.3,94.7c-.38-.07-.76-.11-1.15-.11-3.63,0-6.58,2.95-6.58,6.58,0,.86.17,1.68.46,2.43.97,2.42,3.34,4.13,6.11,4.13,3.63,0,6.57-2.94,6.57-6.57,0-3.24-2.34-5.93-5.42-6.47ZM107.3,94.7c-.38-.07-.76-.11-1.15-.11-3.63,0-6.58,2.95-6.58,6.58,0,.86.17,1.68.46,2.43.97,2.42,3.34,4.13,6.11,4.13,3.63,0,6.57-2.94,6.57-6.57,0-3.24-2.34-5.93-5.42-6.47ZM107.3,94.7c-.38-.07-.76-.11-1.15-.11-3.63,0-6.58,2.95-6.58,6.58,0,.86.17,1.68.46,2.43.97,2.42,3.34,4.13,6.11,4.13,3.63,0,6.57-2.94,6.57-6.57,0-3.24-2.34-5.93-5.42-6.47ZM107.3,94.7c-.38-.07-.76-.11-1.15-.11-3.63,0-6.58,2.95-6.58,6.58,0,.86.17,1.68.46,2.43.97,2.42,3.34,4.13,6.11,4.13,3.63,0,6.57-2.94,6.57-6.57,0-3.24-2.34-5.93-5.42-6.47ZM107.3,94.7c-.38-.07-.76-.11-1.15-.11-3.63,0-6.58,2.95-6.58,6.58,0,.86.17,1.68.46,2.43.97,2.42,3.34,4.13,6.11,4.13,3.63,0,6.57-2.94,6.57-6.57,0-3.24-2.34-5.93-5.42-6.47ZM101.04,36.79c-2.93.37-5.3,2.74-5.67,5.67-.55,4.3,3.08,7.93,7.38,7.38,2.93-.38,5.29-2.74,5.66-5.67.55-4.29-3.07-7.92-7.38-7.38ZM107.3,94.7c-.38-.07-.76-.11-1.15-.11-3.63,0-6.58,2.95-6.58,6.58,0,.86.17,1.68.46,2.43.97,2.42,3.34,4.13,6.11,4.13,3.63,0,6.57-2.94,6.57-6.57,0-3.24-2.34-5.93-5.42-6.47ZM107.3,94.7c-.38-.07-.76-.11-1.15-.11-3.63,0-6.58,2.95-6.58,6.58,0,.86.17,1.68.46,2.43.97,2.42,3.34,4.13,6.11,4.13,3.63,0,6.57-2.94,6.57-6.57,0-3.24-2.34-5.93-5.42-6.47ZM113.47,158.8c-3.51-.62-8.08-.97-12.94-.99-.32,0-.64,0-.95,0-.21,0-.43,0-.64,0-4.74.04-9.19.39-12.62.99-2.68.47-8.27,1.46-8.27,5.73s5.59,5.26,8.27,5.73c3.43.6,7.89.95,12.62.99.21,0,.43,0,.64,0,.32,0,.64,0,.95,0,4.86-.03,9.44-.38,12.94-.99,2.68-.47,8.27-1.45,8.27-5.73s-5.59-5.26-8.27-5.73ZM100.5,167.76c-.31,0-.61,0-.93,0-.2,0-.41,0-.61,0-9.33-.09-11.13-1.5-11.13-3.23s1.8-3.14,11.13-3.22c.2,0,.41,0,.61,0,.32,0,.62,0,.93,0,9.62.05,12.04,1.47,12.04,3.22s-2.42,3.17-12.04,3.23Z"/>
  <path class="cls-3" d="M112.72,101.17c0,3.63-2.94,6.57-6.57,6.57-2.77,0-5.14-1.71-6.11-4.13-.3-.76-.46-1.58-.46-2.43,0-3.63,2.94-6.58,6.58-6.58.39,0,.78.04,1.15.11,3.08.54,5.42,3.23,5.42,6.47Z"/>
  <path class="cls-3" d="M112.72,101.17c0,3.63-2.94,6.57-6.57,6.57-2.77,0-5.14-1.71-6.11-4.13-.3-.76-.46-1.58-.46-2.43,0-3.63,2.94-6.58,6.58-6.58.39,0,.78.04,1.15.11,3.08.54,5.42,3.23,5.42,6.47Z"/>
  <path class="cls-2" d="M141.16,120.58c-.28-4.21-2.08-8.16-5.03-11.18,0-.01.01-.02.01-.03,1.91-4.42,2.98-9.08,3.21-13.79.06-1.34.06-2.68,0-4.03-.25-4.8-1.37-9.58-3.38-14.11-4.66-10.55-13.6-18.32-24.54-21.33-.54-.14-1.07-.29-1.62-.41.02,0,.04-.02.05-.04,3.95-2.47,6.51-6.72,6.8-11.45.04-.57.04-1.15,0-1.74-.01-.27-.04-.55-.07-.83-.75-6.68-6.15-12.08-12.83-12.82-.55-.06-1.11-.09-1.66-.09h-.07c-7.76.04-14.09,6.17-14.48,13.83-.02.25-.02.5-.02.75,0,.29.01.57.03.85.26,4.42,2.54,8.43,6.03,10.97.02,0,.04.02.05.04-1.48.23-2.96.55-4.4.95-10.93,3.01-19.86,10.79-24.53,21.33-2.01,4.53-3.12,9.31-3.38,14.11-.07,1.33-.07,2.67,0,3.99.22,4.62,1.26,9.2,3.08,13.54,0,.01.01.02.02.03-3.16,3.06-5.07,7.13-5.36,11.52-.05.73-.06,1.45-.03,2.15.17,4.14,1.68,7.76,4.53,10.76.96,1.13,2.4,1.79,3.88,1.79h8.2c1.08,0,2.13-.46,2.86-1.26.2-.22.38-.46.51-.72.04-.06.08-.12.1-.19l7.12,11.31c2.74,5.24,8.07,8.5,13.99,8.54h.11c5.96,0,11.34-3.27,14.09-8.54l6.78-10.79.1-.17c.11.18.24.34.38.49.73.8,1.78,1.26,2.86,1.26h8.2c1.51,0,2.91-.65,3.89-1.8,2.84-3,4.36-6.61,4.52-10.75.04-.7.03-1.41-.02-2.14ZM124.58,131.77c-.23,0-.41-.2-.38-.43.21-2.4,2.19-4.27,4.62-4.33h.11c.66,0,1.29.14,1.85.38.04.02.07.03.1.04h0c.22.05.46-.04.59-.24,1.03-1.52,1.64-3.3,1.7-5.14.01-.31,0-.62-.02-.93-.18-2.76-1.57-5.3-3.76-7.02l-.07.12-.22.36-17.72,28.17c-2.12,4.18-6.36,6.78-11.05,6.78-.04,0-.08,0-.11,0-4.65-.04-8.83-2.63-10.95-6.77l-18.16-28.84c-.05.04-.1.08-.15.11-2.29,1.72-3.75,4.33-3.94,7.16-.02.31-.03.62-.02.93.07,1.83.68,3.62,1.7,5.14.09.13.22.21.37.24h0c.11.02.22.01.33-.04.53-.22,1.12-.36,1.73-.38h.11c2.47,0,4.52,1.9,4.74,4.32h0c.02.24-.16.44-.39.44h-8.2c-.49,0-.96-.23-1.26-.61-2.35-2.45-3.53-5.28-3.66-8.58-.02-.57-.01-1.16.03-1.76.29-4.34,2.6-8.3,6.18-10.79v-.02s-.01-.01-.02-.02c-2.3-4.54-3.6-9.43-3.88-14.36-.08-1.32-.08-2.64-.01-3.95.22-4.38,1.25-8.74,3.08-12.88,4.24-9.58,12.34-16.64,22.26-19.37,2.81-.77,5.71-1.21,8.61-1.32.58-.03,1.06-.48,1.09-1.05,0-.02,0-.04,0-.07v-2c0-.5-.33-.94-.82-1.08-4.49-1.29-7.81-5.36-7.99-10.22,0-.14-.01-.29-.01-.42,0-.19,0-.38.02-.57.3-5.82,5.09-10.46,10.98-10.51.44,0,.89.02,1.35.07,5.08.57,9.17,4.65,9.74,9.73.03.21.04.43.05.64.02.36.02.71,0,1.06-.18,4.86-3.51,8.92-7.99,10.22-.48.14-.82.58-.82,1.08v2.29c0,.58.43,1.05,1,1.12,1.73.23,3.45.57,5.14,1.03,9.91,2.73,18.03,9.79,22.26,19.37,1.83,4.14,2.86,8.5,3.08,12.88.07,1.32.06,2.64-.01,3.95-.29,4.94-1.58,9.83-3.89,14.38l-.1.17-.02.03c3.38,2.5,5.57,6.33,5.84,10.54.04.6.05,1.18.03,1.76-.12,3.3-1.31,6.14-3.65,8.59-.3.38-.77.61-1.26.61h-8.2Z"/>
  <path class="cls-2" d="M113.15,158.8c-3.43-.61-7.88-.95-12.62-.99-.32,0-.64,0-.95,0-.21,0-.43,0-.64,0-4.86.02-9.43.38-12.94.99-2.69.47-8.27,1.46-8.27,5.73s5.58,5.26,8.27,5.73c3.51.62,8.08.97,12.94.99.21,0,.43,0,.64,0,.32,0,.64,0,.95,0,4.75-.04,9.2-.39,12.62-.99,2.69-.47,8.27-1.45,8.27-5.73s-5.58-5.26-8.27-5.73ZM99.57,167.76c-.2,0-.41,0-.61,0-9.6-.06-11.45-1.48-11.45-3.23s1.84-3.17,11.45-3.22c.2,0,.41,0,.61,0,.32,0,.62,0,.93,0,9.36.08,11.73,1.49,11.73,3.22s-2.37,3.14-11.73,3.23c-.31,0-.61,0-.93,0Z"/>
</svg>