<svg viewBox="0 0 200 200" xmlns="http://www.w3.org/2000/svg">
  <defs>
    <!-- STAR POINTS -->
    <symbol id="layer-starpoints">
        <g fill="white" opacity="0.8">
        <circle cx="15"  cy="12" r="0.8" />
        <circle cx="42"  cy="35" r="1.1" />
        <circle cx="180" cy="8"  r="0.9" />
        <circle cx="155" cy="45" r="1.2" />
        <circle cx="88"  cy="22" r="0.7" />
        <circle cx="120" cy="15" r="1.0" />
        <circle cx="30"  cy="48" r="0.8" />
        <circle cx="195" cy="30" r="1.1" />
        <circle cx="65"  cy="5"  r="0.9" />
        <circle cx="10"  cy="25" r="1.3" />
        <circle cx="140" cy="38" r="0.7" />
        <circle cx="170" cy="20" r="1.0" />
        <circle cx="55"  cy="42" r="0.8" />
        <circle cx="95"  cy="10" r="1.1" />
        <circle cx="33"  cy="18" r="0.9" />
        <circle cx="125" cy="28" r="1.2" />
        <circle cx="75"  cy="33" r="0.7" />
        <circle cx="162" cy="5"  r="1.0" />
        <circle cx="22"  cy="40" r="0.8" />
        <circle cx="188" cy="47" r="1.1" />
        <circle cx="48"  cy="14" r="0.9" />
        <circle cx="110" cy="43" r="1.3" />
        <circle cx="135" cy="12" r="0.7" />
        <circle cx="82"  cy="49" r="1.0" />
        <circle cx="5"   cy="5"  r="0.8" />
        <circle cx="148" cy="25" r="1.1" />
        <circle cx="60"  cy="20" r="0.9" />
        <circle cx="105" cy="32" r="1.2" />
        <circle cx="175" cy="38" r="0.7" />
        <circle cx="38"  cy="3"  r="1.0" />
        </g>
    </symbol>
    <!-- ZOOMING STAR PATHS -->
    <symbol id="layer-stars">
        <g>
        <path d="M 150 25 Q 148 35 150 48" stroke="#4A90D9" stroke-width="6" stroke-linecap="round" fill="none" opacity="0.8"/>
        <path d="M 150 28 Q 149 36 150 45" stroke="#A8D0F0" stroke-width="3" stroke-linecap="round" fill="none" opacity="0.9"/>
        <path d="M 160 30 Q 158 45 160 50" stroke="#4A90D9" stroke-width="6" stroke-linecap="round" fill="none" opacity="0.8"/>
        <path d="M 160 38 Q 159 46 160 52" stroke="#A8D0F0" stroke-width="3" stroke-linecap="round" fill="none" opacity="0.9"/>
        </g>
        <g>
        <path d="M 40 35 Q 42 48 40 60" stroke="#C94040" stroke-width="5" stroke-linecap="round" fill="none" opacity="0.7"/>
        <path d="M 40 38 Q 41 48 40 57" stroke="#F0A8A8" stroke-width="2.5" stroke-linecap="round" fill="none" opacity="0.85"/>
        </g>
        <g>
        <path d="M 28 130 Q 30 143 28 155" stroke="#C94040" stroke-width="6" stroke-linecap="round" fill="none" opacity="0.8"/>
        <path d="M 28 133 Q 29 143 28 152" stroke="#F0A8A8" stroke-width="3" stroke-linecap="round" fill="none" opacity="0.95"/>
        </g>
        <g>
        <path d="M 165 148 Q 163 158 165 170" stroke="#4A90D9" stroke-width="4" stroke-linecap="round" fill="none" opacity="0.65"/>
        </g>
    </symbol>

    <!-- UFO -->
    <symbol id="layer-ufo">
      <g id="spacecraft-layer">
        <ellipse cx="100" cy="135" rx="55" ry="15" fill="#4A4A4A" stroke="#2D2D2D" stroke-width="4"/>
        <ellipse cx="100" cy="120" rx="70" ry="20" fill="#3A3A3A" stroke="#2D2D2D" stroke-width="5"/>
        <ellipse cx="100" cy="118" rx="55" ry="16" fill="#505050" stroke="#2D2D2D" stroke-width="4"/>
        <ellipse cx="100" cy="108" rx="35" ry="25" fill="#4A4A4A" stroke="#2D2D2D" stroke-width="4"/>
        <ellipse cx="100" cy="105" rx="20" ry="14" fill="#7B3FA8" stroke="#2D2D2D" stroke-width="3"/>
        <ellipse cx="95" cy="102" rx="8" ry="6" fill="#A867CC" opacity="0.7"/>
        <circle cx="105" cy="107" r="2.5" fill="#FFD580" />
        <path d="M 70 160 L 60 190" stroke="#c9f007" stroke-width="8" stroke-linecap="round" opacity="0.3"/>
        <path d="M 130 160 L 140 190" stroke="#c9f007" stroke-width="8" stroke-linecap="round" opacity="0.3"/>
        <path d="M 100 163 L 100 195" stroke="#c9f007" stroke-width="10" stroke-linecap="round" opacity="0.2"/>
    </g>
    </symbol>

    <!-- MASCOT -->
    <symbol id="layer-mascot">
         <g>
      <line x1="100" y1="52" x2="100" y2="35" stroke="#2D3A3A" stroke-width="5" stroke-linecap="round"/>
      <line x1="100" y1="52" x2="100" y2="35" stroke="#5DAFA7" stroke-width="3" stroke-linecap="round"/>
      <circle cx="100" cy="31" r="7" fill="#5DAFA7" stroke="#2D3A3A" stroke-width="3" />
    </g>
    <path d="M 100 125 C 85 118 65 100 65 82 A 35 35 0 1 1 135 82 C 135 100 115 118 100 125 Z" fill="#5DAFA7" stroke="#2D3A3A" stroke-width="5" stroke-linejoin="round"/>
    <circle cx="100" cy="82" r="22" fill="white" stroke="#6B2F98" stroke-width="1.5"/>
    <circle cx="100" cy="82" r="5.5" fill="#1A0A2E"/>
    <g>
      <path d="M 70 90 Q 55 85 50 95" stroke="#2D3A3A" stroke-width="6" stroke-linecap="round" fill="none"/>
      <path d="M 130 90 Q 145 85 150 95" stroke="#2D3A3A" stroke-width="6" stroke-linecap="round" fill="none"/>
    </g>
    </symbol>
  </defs>

  <use href="#layer-starpoints" />
  <use href="#layer-stars" />
  <use href="#layer-ufo" />
  <use href="#layer-mascot" />

</svg>

