<svg width="1024" height="1024" viewBox="0 0 1024 1024" xmlns="http://www.w3.org/2000/svg">

  <circle cx="50"   cy="20"   r="2" fill="white" opacity="0.8" />
  <circle cx="120"  cy="180"  r="1.8" fill="white" opacity="0.9" />
  <circle cx="250"  cy="45"   r="1.8" fill="white" opacity="0.7" />
  <circle cx="380"  cy="210"  r="2.0" fill="white" opacity="1.0" />
  <circle cx="460"  cy="90"   r="1.4" fill="white" opacity="0.8" />
  <circle cx="530"  cy="240"  r="1.7" fill="white" opacity="0.6" />
  <circle cx="610"  cy="15"   r="1.6" fill="white" opacity="0.9" />
  <circle cx="730"  cy="135"  r="1.3" fill="white" opacity="0.8" />
  <circle cx="870"  cy="60"   r="1.7" fill="white" opacity="0.7" />
  <circle cx="970"  cy="200"  r="1.2" fill="white" opacity="0.9" />
  <circle cx="80"   cy="250"  r="1.5" fill="white" opacity="0.8" />
  <circle cx="190"  cy="10"   r="1.0" fill="white" opacity="1.0" />
  <circle cx="300"  cy="165"  r="1.4" fill="white" opacity="0.7" />
  <circle cx="410"  cy="55"   r="1.1" fill="white" opacity="0.9" />
  <circle cx="560"  cy="195"  r="1.8" fill="white" opacity="0.8" />
  <circle cx="690"  cy="80"   r="1.3" fill="white" opacity="0.6" />
  <circle cx="780"  cy="230"  r="1.6" fill="white" opacity="0.9" />
  <circle cx="920"  cy="35"   r="1.2" fill="white" opacity="0.8" />
  <circle cx="35"   cy="125"  r="1.7" fill="white" opacity="0.7" />
  <circle cx="155"  cy="220"  r="1.4" fill="white" opacity="1.0" />
  <circle cx="340"  cy="15"   r="1.1" fill="white" opacity="0.8" />
  <circle cx="485"  cy="145"  r="2.0" fill="white" opacity="0.9" />
  <circle cx="595"  cy="40"   r="1.5" fill="white" opacity="0.7" />
  <circle cx="720"  cy="255"  r="2.3" fill="white" opacity="0.8" />
  <circle cx="845"  cy="110"  r="1.8" fill="white" opacity="0.6" />
  <circle cx="1005" cy="75"   r="2.1" fill="white" opacity="0.9" />
  <circle cx="225"  cy="245"  r="1.7" fill="white" opacity="0.8" />
  <circle cx="365"  cy="100"  r="2.0" fill="white" opacity="0.7" />
  <circle cx="515"  cy="25"   r="1.6" fill="white" opacity="1.0" />
  <circle cx="650"  cy="175"  r="1.9" fill="white" opacity="0.8" />
</svg>